<svg id="d928ccd6-38e6-46cc-8cbb-30b241205382" data-name="Layer 1" xmlns="http://www.w3.org/2000/svg" viewBox="0 0 410.83 288"><title>keelyn-2018-frames</title><path d="M52.55,84.94A80,80,0,0,1,74.07,88a86.53,86.53,0,0,1,10.35,3.59,67.28,67.28,0,0,1,9,4.58l-18,25.34q-11.27-5.42-20.76-5.41-6.35,0-10.21,3.31a10.67,10.67,0,0,0-3.86,8.66c0,3.57,1.08,6.18,3.26,7.81s5.57,2.46,10.21,2.46V125.18H91.35V170.6L73,171.49c-3,.14-5.5.25-7.56.3s-3.68.08-4.86.08q-18.11,0-29.53-4.41A38.07,38.07,0,0,1,12.7,152.39a43.41,43.41,0,0,1-7-24.29,44.55,44.55,0,0,1,5.74-22.3A38.28,38.28,0,0,1,27.76,90.35Q38.31,84.94,52.55,84.94Z" style="fill:#231f20"/><path d="M165.59,119.49q0,7.35-4.47,11.82a15.32,15.32,0,0,1-11.38,4.47A18.63,18.63,0,0,1,136,129.7a13.31,13.31,0,0,0-3.87,6.21,31.25,31.25,0,0,0-1.21,9.25v25.33H96.76V104h34.11v14.13h.22a27.65,27.65,0,0,1,7.89-11,17,17,0,0,1,10.76-3.72,15.47,15.47,0,0,1,15.85,16Z" style="fill:#231f20"/><path d="M245.73,170.49H211.62v-5a26.78,26.78,0,0,1-8.11,4.08,28.94,28.94,0,0,1-8.51,1.44,17.76,17.76,0,0,1-12.69-4.92,16.71,16.71,0,0,1-5.08-12.47,17.44,17.44,0,0,1,6.29-13.85q6.3-5.48,16.45-5.47a44.67,44.67,0,0,1,5.91.39,42.59,42.59,0,0,1,5.74,1.16,8.94,8.94,0,0,0-1-4.23,8.59,8.59,0,0,0-2.73-3.09,12.93,12.93,0,0,0-4.25-1.87,22.14,22.14,0,0,0-5.57-.64,35.69,35.69,0,0,0-9.5,1.27A37.73,37.73,0,0,0,184,129q-2.4,1-5.05,2.4v-20c.63-.37,1.49-.82,2.6-1.35s2.48-1.15,4.14-1.85a54.06,54.06,0,0,1,5.27-1.91,57.13,57.13,0,0,1,6-1.46,72.94,72.94,0,0,1,14.73-1.32q17.9,0,26,7.67t8.11,22Zm-39.41-12.86a8,8,0,0,0,5.3-1.82v-9.27c-1.18-.37-2.16-.64-3-.8a12.93,12.93,0,0,0-2.68-.25,7.36,7.36,0,0,0-4.91,1.57,5.24,5.24,0,0,0-1.88,4.23,5.81,5.81,0,0,0,2,4.52A7.33,7.33,0,0,0,206.32,157.63Z" style="fill:#231f20"/><path d="M337,170.49H304.73V131.42a10,10,0,0,0-1.49-5.8,5.42,5.42,0,0,0-4.8-2.15,9.22,9.22,0,0,0-3.09.61,12.32,12.32,0,0,0-3,1.54v44.87H258.2V104h34.12v8.33a30,30,0,0,1,9.63-6.84,28.15,28.15,0,0,1,10.95-2q12,0,18,6.67t6.07,18.5Z" style="fill:#231f20"/><path d="M402.37,104v18.65H388.13V137.1a7.68,7.68,0,0,0,1.63,5.22,6.12,6.12,0,0,0,4.83,1.85q4.8,0,8.17-4.75v26.33a24,24,0,0,1-4,2.18,36.79,36.79,0,0,1-4.89,1.68,41.41,41.41,0,0,1-10.7,1.44,33.45,33.45,0,0,1-14.46-3.15A25.33,25.33,0,0,1,358,158.52,26.25,26.25,0,0,1,354,144V122.69h-13.9l48-37.64v19Z" style="fill:#231f20"/></svg>