<svg id="7b387590-9700-4e4f-a32b-ec467f42c24a" data-name="Layer 1" xmlns="http://www.w3.org/2000/svg" viewBox="0 0 410.83 395.96"><title>keelyn-2018-frames</title><path d="M10.37,138.48a45,45,0,0,1,3.7-18.77,39.19,39.19,0,0,1,9.75-13.45,42.29,42.29,0,0,1,13.58-8,43.9,43.9,0,0,1,30.37,0,42.18,42.18,0,0,1,13.58,8,39.19,39.19,0,0,1,9.75,13.45,45,45,0,0,1,3.71,18.77v8.89H69.62v-8.89q0-9.14-5.06-13.46a17.85,17.85,0,0,0-12-4.32,17.88,17.88,0,0,0-12,4.32q-5.05,4.32-5.06,13.46v92.83q0,9.13,5.06,13.46a17.88,17.88,0,0,0,12,4.32,17.85,17.85,0,0,0,12-4.32q5.06-4.32,5.06-13.46V198.23h-20V176H94.81v55.3A44.68,44.68,0,0,1,91.1,250.2a39.47,39.47,0,0,1-9.75,13.33,42,42,0,0,1-13.58,8,43.9,43.9,0,0,1-30.37,0,42.11,42.11,0,0,1-13.58-8,39.47,39.47,0,0,1-9.75-13.33,44.68,44.68,0,0,1-3.7-18.89Z" style="fill:#231f20"/><path d="M115.55,147.61h25.18V161a76.55,76.55,0,0,1,15.06-10.87q7.41-3.95,18.27-4V172.8a20.38,20.38,0,0,0-7.65-1.48,30.11,30.11,0,0,0-8.52,1.35,23.35,23.35,0,0,0-8.4,4.57,24.41,24.41,0,0,0-6.29,8.4,29.65,29.65,0,0,0-2.47,12.83v74.32H115.55Z" style="fill:#231f20"/><path d="M230.35,260h-.49a46.51,46.51,0,0,1-10,10.62q-5.06,3.71-14.2,3.7a32.55,32.55,0,0,1-9.13-1.36,22.89,22.89,0,0,1-8.77-4.93,25.93,25.93,0,0,1-6.66-10.13q-2.59-6.54-2.59-16.91a89.5,89.5,0,0,1,1.72-18.64,29.5,29.5,0,0,1,6.3-13.33,27.12,27.12,0,0,1,12.22-7.9q7.65-2.59,19.51-2.6c1.81,0,3.61.09,5.43.25s4,.33,6.66.49V186.13a19.21,19.21,0,0,0-2.71-10.62q-2.71-4.19-9.88-4.19a14.23,14.23,0,0,0-9,3.21,15.18,15.18,0,0,0-5.31,9.38H179q1.23-17,11.36-27.16A35.85,35.85,0,0,1,202.21,149a40.61,40.61,0,0,1,15.55-2.84,43.9,43.9,0,0,1,14.82,2.47,32.82,32.82,0,0,1,12,7.41,35.18,35.18,0,0,1,8,12.34,46.27,46.27,0,0,1,3,17.29v87.15H230.35Zm0-41a40.66,40.66,0,0,0-6.91-.74,24.78,24.78,0,0,0-13.95,3.82q-5.81,3.84-5.8,13.95c0,4.78,1.15,8.64,3.46,11.61a11.5,11.5,0,0,0,9.62,4.44q6.42,0,10-4.2T230.35,236Z" style="fill:#231f20"/><path d="M274.05,147.61h25.19v12.1h.49a35.64,35.64,0,0,1,9.51-9.75q5.55-3.83,14.19-3.83a28.78,28.78,0,0,1,9.38,1.61,21.81,21.81,0,0,1,8.4,5.3,26.71,26.71,0,0,1,5.92,9.51,39.67,39.67,0,0,1,2.23,14.2v96H324.17V186.13q0-6.91-3.21-10.86t-9.13-4q-7.17,0-9.88,4.44t-2.71,12.84v84.19H274.05Z" style="fill:#231f20"/><path d="M370.09,109.59h25.19v38h15.55v19.76H395.28v69.37a21.71,21.71,0,0,0,.86,6.92,7.09,7.09,0,0,0,2.72,3.7,10,10,0,0,0,4.81,1.48c2,.17,4.36.25,7.16.25v23.7H400.46q-8.64,0-14.44-2.72a26,26,0,0,1-9.26-6.91,27,27,0,0,1-5.06-9.5,35.4,35.4,0,0,1-1.61-10.25v-76H357.5V147.61h12.59Z" style="fill:#231f20"/></svg>