<svg id="62fdcdca-71ad-4ad1-bbd5-5aad350c8084" data-name="Layer 1" xmlns="http://www.w3.org/2000/svg" viewBox="0 0 410.83 288"><title>keelyn-2018-frames</title><path d="M188.36,215.53q0,2.43-9.56,2.43h-24q-11.64-.26-16,0h-26.1q-5.69,0-5.68-2.32c0-1.2.47-1.89,1.42-2.07s4-.34,9.17-.52q4.14,0,4.14-2.56,0-1-14.15-20.8l-37.82-52.9a55.47,55.47,0,0,1-4.89-5.4v65.25q0,11.56,1.92,13.75t12.89,2.69c4.26.18,6.39,1,6.39,2.57S84.48,218,81.37,218H9.27c-2.76,0-4.13-.77-4.13-2.31s2.88-2.41,8.65-2.58,9.31-.94,10.6-2.32,1.94-5.15,1.94-11.34V50.74c0-2.4-.61-4-1.81-4.89q-2.58-1.55-11.11-1.55-7.5,0-7.5-2.46c0-1.46,1.21-2.19,3.62-2.19l31.27.77h8.27l16-.77h16.8c2.07,0,3.1.77,3.1,2.32q0,1.81-6.12,2.07Q68.66,44.57,66.75,46t-1.92,9.17v68.23q7-5.68,46.85-50.91,17.76-20.16,17.76-25.59c0-1.2-.77-1.93-2.32-2.19a121.46,121.46,0,0,0-13.18-.39c-2.42,0-3.62-.77-3.62-2.33q0-2.58,6.2-2.32H161c2.41,0,3.62.78,3.62,2.33q0,2.6-4.14,2.59-9.55,0-13,1.29c-2.32.87-5.13,2.93-8.4,6.21q-24,25.11-50.13,55.65,4.39,6.21,24.81,32.35,14.2,17.87,40.57,52,11.63,15.53,15.25,18.51t10.59,3C185.61,213.57,188.36,214.23,188.36,215.53Z" style="fill:#231f20"/><path d="M291.21,186.18q0,5.69-6.71,15-14.47,19.91-37.73,19.9-26.11,0-42.9-16.54t-16.8-42.39q0-25.32,16.28-42.25T243.92,103q16.54,0,28.17,7.24a37,37,0,0,1,16.8,23,84.74,84.74,0,0,1,1.55,11.11q-6,.69-47.81,1-6.47,0-16.28.51-.78,9.27-.78,15.7,0,30.12,12.67,42.74a25,25,0,0,0,18.35,7.46q9,0,17.44-6.2a39.69,39.69,0,0,0,12.79-16q2.07-4.9,3.36-4.91C290.87,184.63,291.21,185.14,291.21,186.18ZM258.65,141q.25-19.74-2.84-27.45T245,105.81q-15.78,0-18.09,35.14h31.78Z" style="fill:#231f20"/><path d="M404.92,186.18q0,5.69-6.72,15-14.47,19.91-37.73,19.9-26.1,0-42.9-16.54t-16.8-42.39q0-25.32,16.28-42.25T357.63,103q16.53,0,28.17,7.24a36.94,36.94,0,0,1,16.79,23,81.47,81.47,0,0,1,1.55,11.11q-5.94.69-47.8,1-6.46,0-16.29.51-.76,9.27-.77,15.7,0,30.12,12.66,42.74a25,25,0,0,0,18.35,7.46q9,0,17.44-6.2a39.71,39.71,0,0,0,12.8-16q2.06-4.9,3.36-4.91C404.57,184.63,404.92,185.14,404.92,186.18ZM372.36,141q.25-19.74-2.84-27.45t-10.86-7.69q-15.77,0-18.09,35.14h31.79Z" style="fill:#231f20"/></svg>