<svg id="af7efc43-38b4-456f-a6cb-fe4f2a13d841" data-name="Layer 1" xmlns="http://www.w3.org/2000/svg" viewBox="0 0 410.83 395.96"><title>keelyn-2018-frames</title><path d="M19,92.5h78.4v24.76H45.33v53.9H90.72v24.76H45.33v53.9H97.42v26.3H19Z" style="fill:#231f20"/><path d="M110.6,145.37h26.31v13.92A79.54,79.54,0,0,1,152.64,148q7.74-4.12,19.08-4.13v27.85a21.34,21.34,0,0,0-8-1.54,31.52,31.52,0,0,0-8.9,1.41,24.41,24.41,0,0,0-8.77,4.78,25.31,25.31,0,0,0-6.57,8.76,31,31,0,0,0-2.58,13.42v77.62H110.6Z" style="fill:#231f20"/><path d="M181.5,145.37h26.3V158h.52a37.49,37.49,0,0,1,9.93-10.18q5.81-4,14.83-4a30.1,30.1,0,0,1,9.8,1.68,22.75,22.75,0,0,1,8.77,5.54,28,28,0,0,1,6.19,9.93,41.83,41.83,0,0,1,2.32,14.83V276.12H233.85V185.6q0-7.22-3.35-11.35T221,170.13q-7.49,0-10.32,4.64c-1.89,3.09-2.84,7.57-2.84,13.41v87.94H181.5Z" style="fill:#231f20"/><path d="M276.2,92.5h26.3v26.3H276.2Zm0,52.87h26.3V276.12H276.2Z" style="fill:#231f20"/><path d="M343.58,220.67v17.8q0,6.19,3.49,9.54t9.41,3.36q7.47,0,9.93-4.39a23.51,23.51,0,0,0,3-8.77h26.31A43.63,43.63,0,0,1,393,253.69a34.35,34.35,0,0,1-7.86,12.38,37.26,37.26,0,0,1-12.38,8.51,40.94,40.94,0,0,1-16.25,3.09q-12.12,0-20.89-5.16A34.69,34.69,0,0,1,318.31,247a96.69,96.69,0,0,1-1-14.7V189.21a96.69,96.69,0,0,1,1-14.7A34.69,34.69,0,0,1,335.59,149q8.76-5.16,20.89-5.16a41.87,41.87,0,0,1,16.38,3.09,34.78,34.78,0,0,1,12.38,8.64,38.79,38.79,0,0,1,7.73,13,46.53,46.53,0,0,1,2.71,16v36.1Zm0-20.63h25.79v-15q0-7.47-3.48-11.21a13.71,13.71,0,0,0-18.82,0q-3.49,3.74-3.49,11.21Z" style="fill:#231f20"/></svg>