<svg id="b0aba1de-2264-4e51-af85-706909a6e5bf" data-name="Layer 1" xmlns="http://www.w3.org/2000/svg" viewBox="0 0 410.83 288"><title>keelyn-2018-frames</title><path d="M105.73,100.51a24.37,24.37,0,0,1-5.81,16.33Q94.1,123.67,83.86,126a85.05,85.05,0,0,1-15.29,2.15q-7.18.3-42.19.31a57.84,57.84,0,0,1-5.82-.16,1,1,0,0,1-.91-1.07c0-.92,1.65-1.38,5-1.38s5.37-.48,6.19-1.45S32,121,32,117.24V29.65q0-4.44-7.12-4.59-5.41-.15-5.42-1.3c0-.87,1.13-1.3,3.37-1.3h43q35.33,0,35.32,24.23,0,20.09-26.3,24.84l-.3.61Q90,75.37,95.94,80.27,105.74,88.4,105.73,100.51Zm-24.46-.69q0-21.55-12.25-25.07-4.83-1.38-13.9-1.38v8.87q0,3.83-.31,10.86-.15,3.51-.15,13.15,0,16.5.92,17.58c.81,1.12,3.11,1.68,6.88,1.68Q81.27,125.51,81.27,99.82ZM78.36,47.53q0-22.17-13.5-22.17a29.32,29.32,0,0,0-6.44.46,4.51,4.51,0,0,0-3.3,4.74V70.93q13.35,0,18.29-4.74T78.36,47.53Z" style="fill:#231f20"/><path d="M156.34,127.19c0,.72-.46,1.07-1.37,1.07H116.42c-1.21,0-1.82-.32-1.82-1,0-.48,1.17-.77,3.51-.85,3.47-.1,5.51-.49,6.12-1.15s.92-2.69.92-6.08V75.1c0-3.9-.34-6.23-1-7s-2.67-1.16-6-1.16a23.77,23.77,0,0,1-3.74-.15c-.36-.1-.54-.46-.54-1.07s.77-1.07,2.3-1.07q16.81-.15,28.74-5.2c.2,1.22.46,4.59.76,10.09v48.16c0,4.18.39,6.63,1.15,7.34s3.39,1.07,7.88,1.07C155.78,126.12,156.34,126.48,156.34,127.19ZM145.63,30.26a10.17,10.17,0,0,1-3,7.34,9.65,9.65,0,0,1-7.19,3,10.08,10.08,0,0,1-7.35-2.9,9.83,9.83,0,0,1-3-7.34,9.16,9.16,0,0,1,3-7,10.8,10.8,0,0,1,7.66-2.76,9.65,9.65,0,0,1,7,2.76A9.19,9.19,0,0,1,145.63,30.26Z" style="fill:#231f20"/><path d="M216.73,71.54a10.3,10.3,0,0,1-2.6,7.26,8.71,8.71,0,0,1-6.73,2.83q-8.25,0-8.25-7.65a8.54,8.54,0,0,1,2-5.19,1.88,1.88,0,0,0,.46-1.07c0-.92-.65-1.38-2-1.38q-5.13,0-7.84,8.08-1.51,4.58-1.51,22.42v24.55c0,2.75,1.37,4.22,4.13,4.43,1.63.1,3.56.15,5.81.15,1.12.1,1.68.46,1.68,1.07,0,.82-.46,1.22-1.38,1.22H160.46q-1.68,0-1.68-1c0-.66.71-1,2.14-1q6.27-.16,7.57-1.3c.86-.76,1.3-3,1.3-6.79L169.64,77c0-3.46-.49-5.85-1.45-7.17s-3.14-2.13-6.5-2.44a45.1,45.1,0,0,1-4.51-.43c-.36-.1-.54-.43-.54-1s.41-.86,1.22-.86h5.66a75.11,75.11,0,0,0,25.38-4.9,29.17,29.17,0,0,1,.77,7v6.42q2.9-7.41,6.34-10.43a13.06,13.06,0,0,1,9-3,11.59,11.59,0,0,1,8.48,3.22A10.85,10.85,0,0,1,216.73,71.54Z" style="fill:#231f20"/><path d="M270.4,118.33c0,1.12-1,2.59-2.93,4.43q-7.55,7.18-20.8,7.19-12.16,0-16-6a9.93,9.93,0,0,1-1.78-4.28c-.15-1.32-.23-4.74-.23-10.24v-7.34A56.94,56.94,0,0,0,229,96l-.31-3.21V68c0-1.83-.25-2.9-.76-3.21s-2-.46-4.59-.46c-3.06,0-4.58-.4-4.58-1.22,0-.61.55-1,1.68-1.22q14.37-.46,24.77-15.6c.91-1.43,1.63-2.14,2.14-2.14s.92.71.92,2.14q-.16,13.15,1.07,14.37t7.49,1.23a44.82,44.82,0,0,0,9-.62,1.34,1.34,0,0,1,.61-.15c.41,0,.61.32.61,1,0,1.5-.66,2.25-2,2.25q-6.21.15-13.8.15h-2.12v3.2q0,40.77.61,47.76,1.41,8.83,8.69,8.83,3.27,0,8.39-4.59c1.65-1.43,2.68-2.14,3.1-2.14S270.4,117.82,270.4,118.33Z" style="fill:#231f20"/><path d="M347.3,127.65c0,.61-.46.92-1.37.92H333.69c-8.76,0-14.17-.15-16.2-.46H315l-3.67.46c-1.33.1-2-.28-2-1.15,0-.66.26-1,.77-1h3.51c2.24.1,3.52-.51,3.83-1.84q.3-1.22.3-15.29V86.52q0-14.22-1.36-16.82-2-4-7.59-4a10,10,0,0,0-9.1,5.38q-1.51,2.61-1.52,11.21v42q-.15,2.3,6.3,2.3c.89,0,1.35.31,1.35.92s-.67,1.08-2,1.08h-1.23a10.91,10.91,0,0,0-3.66-.46h-6.73l-8.56.15-9,.31h-4.59c-1.53,0-2.3-.31-2.3-.92a.63.63,0,0,1,.31-.61,3.85,3.85,0,0,1,1.38-.15c3.87,0,6.16-.16,6.88-.46s1.17-1.48,1.37-3.52q.15-1.83.16-18.35V48.45q0-16.52-.69-19t-6.5-2.53c-3,0-4.43-.3-4.43-.91s1.72-1,5.17-1.23a95.15,95.15,0,0,0,22.06-4,11,11,0,0,1,2.89-.61q1.22,0,1.22,8.56v42.2q4.42-6.27,8.64-8.57t11.39-2.29q15.14,0,19,12.23,1.38,4,1.37,12.85v35.62c0,2.65.44,4.28,1.3,4.89s3,.92,6.5.92C346.79,126.58,347.3,126.94,347.3,127.65Z" style="fill:#231f20"/><path d="M388.89,101.2h-37V85.45h37Z" style="fill:#231f20"/><path d="M180.88,245.21c0,.71-1,1.07-3.06,1.07h-6.88a36.7,36.7,0,0,0-15.75,3.52,6.5,6.5,0,0,1-1.07.3c-.92,0-1.43-.92-1.53-2.75a21.92,21.92,0,0,0-.46-3.83q-6.12,6.58-16.21,6.58a28.17,28.17,0,0,1-22.17-9.94Q105,230.23,105,214.93q0-15.6,8.87-25.15t23.39-9.56a19.29,19.29,0,0,1,15.44,7V165.85q0-13.75-1.22-16.28t-8.1-2.37c-2.66,0-4-.36-4-1.07s.62-1.07,1.85-1.07a87.12,87.12,0,0,0,26.86-4.13,9.69,9.69,0,0,1,2.62-.61c1.13,0,1.7,1.22,1.7,3.67v95.25a5.76,5.76,0,0,0,.76,3.52c.71.92,2.5,1.32,5.35,1.22C180.11,243.88,180.88,244.29,180.88,245.21Zm-28.14-13.77V198.11q0-6.87-2.3-10.24a9.34,9.34,0,0,0-8.16-4.28q-14.76,0-14.76,32.57,0,14.52,3.76,22.47t10.54,8c2.67,0,5.15-1.2,7.46-3.59S152.74,236.75,152.74,231.44Z" style="fill:#231f20"/><path d="M252.28,240c0,.83-.82,2-2.45,3.41a23,23,0,0,1-16.21,6.06q-6.27,0-9.09-2.64t-3.75-9.44Q213.9,250,202,250a14.23,14.23,0,0,1-10.63-4.13,14.65,14.65,0,0,1-4-10.71q0-19.26,33-22.78v-3.21q0-15.28-1.07-18.8l-.15-.77q-2.15-7.63-10.86-7.64a11.31,11.31,0,0,0-8.1,2.9c-2,1.94-3.06,3.82-3.06,5.66,0,1,1.23,1.63,3.67,1.83q5.5.47,5.51,6.73a7.57,7.57,0,0,1-2.22,5.58,7.75,7.75,0,0,1-5.73,2.22,10.14,10.14,0,0,1-7.27-2.68,9,9,0,0,1-2.83-6.8q0-6.57,6.58-11.93t17.28-5.35q15.9,0,22.17,5.66,5,4.74,5,16.51v26.15c0,5.09.05,8.05.16,8.86q.75,6.44,4.43,6.43c1.73,0,3.87-1.23,6.42-3.67.51-.51.92-.77,1.22-.77A.69.69,0,0,1,252.28,240Zm-32-18.21v-7.49q-14.83,2.91-14.83,16.82,0,10.7,7.34,10.7,4.13,0,5.81-4.59T220.32,221.81Z" style="fill:#231f20"/><path d="M317.72,183c0,.71-.21,1.14-.62,1.3a21,21,0,0,1-4.28.22c-2.75,0-4.38.16-4.89.46l-.92,1.69L305.18,192q-1.23,3.66-5.5,14.83-.31.91-6.73,18.8Q277.82,268,273.38,276.86q-5.5,11-14.07,11a10.81,10.81,0,0,1-7.87-2.9,10.21,10.21,0,0,1-3-7.65q0-7.49,8.26-7.49a5.73,5.73,0,0,1,4.44,1.84,22.75,22.75,0,0,1,2.59,4.28,3.39,3.39,0,0,0,2.91,1.53q3.06,0,5.89-5.13T280.26,253q-1.23-2.44-4.73-10.86-4.61-11.61-12.25-30.42-1.83-4.58-8.24-20-2.14-5.41-3.67-6.45t-7-1.19c-1.23,0-1.84-.36-1.84-1.07s.61-1.07,1.84-1.07h37.46c1.12,0,1.68.35,1.68,1.07q0,1.36-4.59,1.22t-4.59,2a15.1,15.1,0,0,0,1.23,4.74,52.29,52.29,0,0,1,1.83,5q7.5,20.81,12.23,31.65,14.22-36.24,14.22-41.28,0-1.68-3.51-1.68c-4.9,0-7.34-.46-7.34-1.38s.61-1.37,1.83-1.37q1.53,0,3.06.15c1.93.2,4.59.3,8,.3.41,0,1.91-.07,4.51-.23s4.31-.22,5.12-.22h.92C317.26,181.91,317.72,182.26,317.72,183Z" style="fill:#231f20"/></svg>