<svg id="9a14d79b-4b90-494a-92f9-a8cc79b74cc1" data-name="Layer 1" xmlns="http://www.w3.org/2000/svg" viewBox="0 0 410.83 288"><title>keelyn-2018-frames</title><path d="M40.86,91.82V119.7H58V91.82H91.75V168H58V139.66H40.86V168H7.13V91.82Z" style="fill:#231f20"/><path d="M165.73,168H134.9v-4.49a24.12,24.12,0,0,1-7.34,3.69,26.28,26.28,0,0,1-7.68,1.3A16,16,0,0,1,108.41,164a15.11,15.11,0,0,1-4.59-11.27,15.74,15.74,0,0,1,5.69-12.52q5.68-4.94,14.86-4.94a41.17,41.17,0,0,1,5.34.35,37.86,37.86,0,0,1,5.19,1,8.15,8.15,0,0,0-.87-3.82,7.86,7.86,0,0,0-2.47-2.79,11.6,11.6,0,0,0-3.85-1.7,20.41,20.41,0,0,0-5-.57,32.17,32.17,0,0,0-8.58,1.14,32.83,32.83,0,0,0-4.17,1.48c-1.45.61-3,1.34-4.57,2.17V114.52c.57-.34,1.35-.74,2.35-1.23s2.24-1,3.74-1.67,3.09-1.2,4.77-1.72a52.29,52.29,0,0,1,5.41-1.32,65.55,65.55,0,0,1,13.32-1.2q16.16,0,23.45,6.94t7.33,19.9Zm-35.62-11.63a7.33,7.33,0,0,0,4.79-1.64v-8.39q-1.6-.49-2.67-.72a11.88,11.88,0,0,0-2.42-.22,6.67,6.67,0,0,0-4.44,1.42,4.73,4.73,0,0,0-1.7,3.81,5.29,5.29,0,0,0,1.85,4.1A6.67,6.67,0,0,0,130.11,156.32Z" style="fill:#231f20"/><path d="M223.05,107.38a24.61,24.61,0,0,1,13.52,3.89,25.61,25.61,0,0,1,9.48,10.63,36.16,36.16,0,0,1-.85,32.28A27.37,27.37,0,0,1,234.58,165a28.73,28.73,0,0,1-14,3.5,29.46,29.46,0,0,1-6-.63,33.49,33.49,0,0,1-6.31-2v19H177.4V107.88h30.83v4.59a26.78,26.78,0,0,1,7.11-3.82A23.61,23.61,0,0,1,223.05,107.38Zm-14.82,37.77a12.38,12.38,0,0,0,1.85.85,10.61,10.61,0,0,0,3.49.59,5.61,5.61,0,0,0,4.54-2,8.2,8.2,0,0,0,1.7-5.46,10,10,0,0,0-.45-3.09,7.43,7.43,0,0,0-1.27-2.42,5.55,5.55,0,0,0-2-1.57,5.93,5.93,0,0,0-2.57-.55,6.62,6.62,0,0,0-5.29,2.84Z" style="fill:#231f20"/><path d="M305,107.38a24.63,24.63,0,0,1,13.52,3.89A25.61,25.61,0,0,1,328,121.9a36.16,36.16,0,0,1-.85,32.28A27.46,27.46,0,0,1,316.49,165a28.73,28.73,0,0,1-14,3.5,29.36,29.36,0,0,1-6-.63,33.49,33.49,0,0,1-6.31-2v19H259.32V107.88h30.83v4.59a26.63,26.63,0,0,1,7.11-3.82A23.52,23.52,0,0,1,305,107.38Zm-14.82,37.77A12.38,12.38,0,0,0,292,146a10.61,10.61,0,0,0,3.49.59,5.62,5.62,0,0,0,4.54-2,8.2,8.2,0,0,0,1.69-5.46,10.34,10.34,0,0,0-.44-3.09A7.45,7.45,0,0,0,300,133.6a5.51,5.51,0,0,0-2-1.57,5.93,5.93,0,0,0-2.57-.55,6.62,6.62,0,0,0-5.29,2.84Z" style="fill:#231f20"/><path d="M366.28,107.88l7.23,16,6.94-16h29.93L377.9,184.81H344.38l12.37-29.24L335.6,107.88Z" style="fill:#231f20"/></svg>