<svg id="f2a152af-ff98-4207-976e-3a440f6ea8f7" data-name="Layer 1" xmlns="http://www.w3.org/2000/svg" viewBox="0 0 410.83 288"><title>keelyn-2018-frames</title><path d="M111.16,188.11c0,.61-.46.92-1.38.92a17.55,17.55,0,0,1-2-.11q-5.36-.66-30-.66H66.05q-4.74.15-4.74-1.29c0-.86,1.27-1.35,3.82-1.46A15.91,15.91,0,0,0,71,184.22c1.68-.77,2.52-1.65,2.52-2.67.1-.61.21-2.29.31-5v-43H37.46v47.24q.15,4,6.12,4.74c3.15.41,5,.69,5.5.84a1,1,0,0,1,.76,1c0,.61-.51.91-1.52.91q-2,0-10.55-.3t-7.19-.31c-.61,0-3.75.1-9.4.31s-11,.3-16.13.3H3.52c-1.84,0-2.76-.46-2.76-1.37s.72-1.23,2.15-1.23c4.78,0,8.1-.61,9.93-1.83q1.23-.75,1.23-8.09V91.46q0-4.87-2.66-5.87t-8.61-1q-2,0-2-1.23c0-.5.57-.81,1.69-.91H47.7c1.43,0,2.14.51,2.14,1.53a1.18,1.18,0,0,1-.81,1.3,35.39,35.39,0,0,1-5.16.38q-4.35.15-5.38,1.91t-1,6.35V130h3.62q15.11.62,32.77-.31V95.49q0-10.42-7.52-10.43-5,0-5-1.37t2-1.23h46.35c1,0,1.52.3,1.52.91s-1.89,1.23-5.66,1.53-6.12,1.1-7,2.37-1.38,4.45-1.38,9.54v75.12q0,9.91,2.52,12t8.64,2.37Q111.16,186.43,111.16,188.11Z" style="fill:#231f20"/><path d="M182.1,180c0,.83-.82,2-2.45,3.41a23,23,0,0,1-16.2,6.06q-6.28,0-9.1-2.64t-3.75-9.44Q143.73,190,131.8,190a14.23,14.23,0,0,1-10.63-4.13,14.65,14.65,0,0,1-4-10.71q0-19.26,33-22.78v-3.21q0-15.28-1.07-18.8l-.15-.77q-2.14-7.64-10.86-7.64a11.31,11.31,0,0,0-8.1,2.9c-2,1.94-3.06,3.82-3.06,5.66,0,1,1.23,1.63,3.67,1.83q5.51.47,5.51,6.73a7.57,7.57,0,0,1-2.22,5.58,7.75,7.75,0,0,1-5.73,2.22,10.14,10.14,0,0,1-7.27-2.68,9,9,0,0,1-2.82-6.8q0-6.57,6.57-11.93t17.28-5.35q15.9,0,22.17,5.66,5,4.74,5,16.51v26.15c0,5.09.05,8.05.16,8.86q.75,6.44,4.43,6.43c1.73,0,3.87-1.23,6.42-3.67.51-.51.92-.77,1.22-.77A.69.69,0,0,1,182.1,180Zm-32-18.21v-7.49q-14.82,2.91-14.83,16.82,0,10.7,7.34,10.7,4.13,0,5.81-4.59T150.14,161.81Z" style="fill:#231f20"/><path d="M257.32,153.79q0,15.56-8.84,25.93T226.39,190.1a19.36,19.36,0,0,1-16.16-7.95v34.27a19.23,19.23,0,0,0,.45,5.41,2.5,2.5,0,0,0,2,1.45,72,72,0,0,0,8.08.46c1.11,0,1.66.48,1.66,1.46,0,.76-.66,1.13-2,1.13H181.94c-2.24,0-3.36-.4-3.36-1.22s1.84-1.07,5.51-1.07c3,0,4.76-.3,5.12-.92s.53-2.54.53-5.81v-84.7q.15-3.21-2.44-4a18.53,18.53,0,0,0-5.2-.46h-2.91c-.81,0-1.22-.3-1.22-.91,0-.82.61-1.12,1.83-.92q16.22-.47,28.44-6.12a5.33,5.33,0,0,1,.77,2.45l.3,3.82.16,2.6a24.58,24.58,0,0,1,8.1-7,24.08,24.08,0,0,1,10.24-1.88,26.94,26.94,0,0,1,21.1,9.54Q257.33,139.3,257.32,153.79Zm-22.47-.61q0-29.13-13.07-29.13-5.78,0-9.73,5.49-1.81,2.6-1.82,8.69v30.05q0,9.76,2.43,13.27a10.82,10.82,0,0,0,9.42,5.18Q234.85,186.73,234.85,153.18Z" style="fill:#231f20"/><path d="M339,153.79q0,15.56-8.84,25.93A27.84,27.84,0,0,1,308,190.1a19.35,19.35,0,0,1-16.15-7.95v34.27a19.23,19.23,0,0,0,.45,5.41,2.5,2.5,0,0,0,2,1.45,72,72,0,0,0,8.08.46c1.11,0,1.66.48,1.66,1.46,0,.76-.66,1.13-2,1.13H263.59c-2.24,0-3.36-.4-3.36-1.22s1.83-1.07,5.5-1.07c3.06,0,4.77-.3,5.12-.92s.54-2.54.54-5.81v-84.7q.15-3.21-2.45-4a18.48,18.48,0,0,0-5.2-.46h-2.9c-.82,0-1.22-.3-1.22-.91,0-.82.61-1.12,1.83-.92q16.2-.47,28.44-6.12a5.33,5.33,0,0,1,.76,2.45l.31,3.82.15,2.6c2.76-3.4,5.45-5.73,8.11-7a24.08,24.08,0,0,1,10.24-1.88,27,27,0,0,1,21.1,9.54Q339,139.3,339,153.79Zm-22.48-.61q0-29.13-13.06-29.13-5.79,0-9.73,5.49c-1.22,1.73-1.82,4.63-1.82,8.69v30.05q0,9.76,2.43,13.27a10.82,10.82,0,0,0,9.42,5.18Q316.5,186.73,316.49,153.18Z" style="fill:#231f20"/><path d="M410.83,123c0,.71-.2,1.14-.61,1.3a21.15,21.15,0,0,1-4.28.22c-2.75,0-4.39.16-4.89.46l-.92,1.69L398.29,132q-1.21,3.66-5.5,14.83-.32.91-6.73,18.8Q370.93,208,366.49,216.86q-5.5,11-14.07,11a10.82,10.82,0,0,1-7.87-2.9,10.2,10.2,0,0,1-3-7.65q0-7.49,8.26-7.49a5.71,5.71,0,0,1,4.43,1.84,22,22,0,0,1,2.6,4.28,3.36,3.36,0,0,0,2.9,1.53q3.06,0,5.89-5.13T373.37,193q-1.22-2.44-4.73-10.86-4.59-11.61-12.25-30.42-1.83-4.58-8.23-20-2.15-5.41-3.68-6.45c-1-.69-3.36-1.09-7-1.19-1.22,0-1.83-.36-1.83-1.07s.61-1.07,1.83-1.07H374.9c1.12,0,1.68.35,1.68,1.07q0,1.36-4.58,1.22t-4.59,2a15,15,0,0,0,1.22,4.74q1.68,4.27,1.84,5,7.48,20.81,12.23,31.65,14.22-36.24,14.22-41.28c0-1.12-1.17-1.68-3.52-1.68q-7.33,0-7.34-1.38c0-.92.61-1.37,1.84-1.37q1.52,0,3.06.15,2.9.3,8,.3c.4,0,1.91-.07,4.51-.22s4.3-.23,5.12-.23h.92C410.37,121.91,410.83,122.26,410.83,123Z" style="fill:#231f20"/></svg>