<svg id="21c1b38e-2940-4247-b9dc-39bc59150b74" data-name="Layer 1" xmlns="http://www.w3.org/2000/svg" viewBox="0 0 410.83 288"><title>keelyn-2018-frames</title><path d="M83.87,117.63a25.6,25.6,0,0,1-12.68,22.19A24.77,24.77,0,0,1,58.6,143.2,24.35,24.35,0,0,1,50,141.71a38.61,38.61,0,0,1-8.8-5.12v31.29H7.66V92H54.22a42.14,42.14,0,0,1,7.91.73,31.68,31.68,0,0,1,7.09,2.21,25.84,25.84,0,0,1,6,3.76A22.67,22.67,0,0,1,79.89,104,24.69,24.69,0,0,1,83.87,117.63ZM41.24,124.9a11,11,0,0,0,2.79.39,9,9,0,0,0,3.4-.62,7.71,7.71,0,0,0,2.69-1.74,7.61,7.61,0,0,0,1.74-2.73,9.75,9.75,0,0,0,.62-3.56,8.63,8.63,0,0,0-2-6.07,7.24,7.24,0,0,0-5.6-2.19H41.24Z" style="fill:#231f20"/><path d="M149.24,121.91a14.39,14.39,0,0,1-4,10.65,13.8,13.8,0,0,1-10.25,4,16.82,16.82,0,0,1-12.43-5.47,11.88,11.88,0,0,0-3.49,5.59A28.14,28.14,0,0,0,118,145v22.84H87.21V108H118v12.74h.2a24.81,24.81,0,0,1,7.11-9.88,15.34,15.34,0,0,1,9.7-3.35,14,14,0,0,1,14.28,14.42Z" style="fill:#231f20"/><path d="M156.9,108a24,24,0,0,0,7,2.54,41.29,41.29,0,0,0,8.81.9,37,37,0,0,0,8.25-.88,22.68,22.68,0,0,0,6.72-2.56v59.9H156.9Zm30.54-8.55a8.43,8.43,0,0,1-2.59,6.17,8.2,8.2,0,0,1-6.06,2.58A8.83,8.83,0,0,1,170,99.43a8.18,8.18,0,0,1,2.59-6.07,8.4,8.4,0,0,1,6.17-2.59,8.27,8.27,0,0,1,6.06,2.54A8,8,0,0,1,187.44,99.43Z" style="fill:#231f20"/><path d="M270,167.88H240.94V132.66a9,9,0,0,0-1.35-5.23,4.89,4.89,0,0,0-4.32-1.94,8.59,8.59,0,0,0-2.79.55,11.55,11.55,0,0,0-2.74,1.39v40.45H199V108h30.74v7.52a27.12,27.12,0,0,1,8.68-6.17,25.36,25.36,0,0,1,9.88-1.84q10.8,0,16.22,6T270,130.17Z" style="fill:#231f20"/><path d="M312.64,106.74a69.81,69.81,0,0,1,11.29.94,77.39,77.39,0,0,1,11,2.64v26.27a49.47,49.47,0,0,0-8.88-3.26,31.87,31.87,0,0,0-7.93-1.12,14.15,14.15,0,0,0-6.87,1.39,4.33,4.33,0,0,0-2.48,3.93,4.69,4.69,0,0,0,2.66,4.26q2.65,1.52,8,1.51a40.77,40.77,0,0,0,4.31-.22c1.4-.15,2.82-.36,4.25-.62a36.69,36.69,0,0,0,3.88-1,18.94,18.94,0,0,0,3-1.27v26a66.67,66.67,0,0,1-9.37,2,72.35,72.35,0,0,1-9.88.67q-18,0-27.86-8.65a28,28,0,0,1-9.85-22,29.41,29.41,0,0,1,9.56-22.39Q297.06,106.74,312.64,106.74Z" style="fill:#231f20"/><path d="M374.76,106.74a34.29,34.29,0,0,1,16.67,4A27.52,27.52,0,0,1,403,122.41a36.43,36.43,0,0,1,4.13,17.46v1.94H375.66a13.87,13.87,0,0,0,2.24,4.06,14.36,14.36,0,0,0,3.38,3.08,16,16,0,0,0,4.25,1.94,17.62,17.62,0,0,0,5,.67,26,26,0,0,0,4.83-.45,25.22,25.22,0,0,0,4.5-1.27,20.17,20.17,0,0,0,3.95-2,18.49,18.49,0,0,0,3.29-2.77v10.5a31.89,31.89,0,0,1-12.54,10.07A40.72,40.72,0,0,1,378,168.77a42.82,42.82,0,0,1-9.78-1,36.29,36.29,0,0,1-8.48-3,29.71,29.71,0,0,1-6.94-4.75,28.45,28.45,0,0,1-5.17-6.32,29,29,0,0,1-3.21-7.68,33.57,33.57,0,0,1-1.05-8.86,31.25,31.25,0,0,1,3.93-15.72,27.51,27.51,0,0,1,11.1-10.84A33.6,33.6,0,0,1,374.76,106.74Zm-.94,24.57h14.47a11.65,11.65,0,0,0-2.16-6.94,6.49,6.49,0,0,0-5.35-2.56,6.07,6.07,0,0,0-5,2.54,9.64,9.64,0,0,0-2,6.32Z" style="fill:#231f20"/></svg>