<svg id="5141a328-4648-4d3b-94d5-c0050b42ee9b" data-name="Layer 1" xmlns="http://www.w3.org/2000/svg" viewBox="0 0 410.83 288"><title>keelyn-2018-frames</title><path d="M121.43,216c0,1.29-3.27,1.93-9.79,1.93q-2.31,0-14.42-.51-6.18-.25-12.1-.26-5.67,0-21.11.52l-7.73.25c-3.78.17-5.66-.42-5.66-1.8s2-2,5.94-1.81q9,.26,10.47-1.8t1.42-15.49v-136q0-8.78-1.83-10.45T55.88,49Q49.33,49,49.33,47q0-2.19,6.68-2.47,28.82-1,47.07-8.79V190.83q0,17.58.9,20.55t6.34,2.71h7.75C120.31,214.09,121.43,214.73,121.43,216Z" style="fill:#231f20"/><path d="M236.43,107.62c0,1.2-.35,1.93-1,2.19s-3.1.39-7.23.39q-7,0-8.27.78l-1.55,2.84-3.1,9q-2.07,6.21-9.31,25.07-.51,1.55-11.37,31.79Q169,251.3,161.48,266.29q-9.3,18.61-23.77,18.61-8.28,0-13.31-4.91t-5-12.92q0-12.67,14-12.67a9.71,9.71,0,0,1,7.5,3.1q1.29,1.29,4.39,7.24a5.69,5.69,0,0,0,4.91,2.58q5.17,0,9.95-8.65T173.11,226q-2.06-4.14-8-18.35Q157.35,188,144.41,156.2q-3.09-7.74-13.91-33.86-3.63-9.15-6.21-10.9t-11.9-2c-2.07,0-3.11-.6-3.11-1.8s1-1.81,3.1-1.81H175.7c1.89,0,2.84.6,2.84,1.81,0,1.55-2.59,2.24-7.75,2.06S163,110.63,163,113q0,2.59,2.07,8c1.89,4.83,2.93,7.67,3.1,8.53q12.66,35.14,20.68,53.5,24-61.25,24-69.78,0-2.83-5.94-2.84-12.4,0-12.41-2.33c0-1.55,1-2.32,3.1-2.32,1.72,0,3.45.09,5.17.25a133.67,133.67,0,0,0,13.44.52q1,0,7.62-.39c4.4-.25,7.28-.38,8.66-.38h1.55C235.65,105.81,236.43,106.41,236.43,107.62Z" style="fill:#231f20"/><path d="M363.05,216.16c0,1.38-2.15,2.06-6.46,2.06h-55.3c-2.41,0-3.62-.64-3.62-1.93,0-1.12,1-1.69,3.05-1.69h2q6.58,0,7.73-1.68t1.15-11.56V151.23q0-27.79-3.56-33.25-3.06-4.68-10.94-4.68a18,18,0,0,0-13,4.9,16.45,16.45,0,0,0-5.08,12.37v78.12q.51,3.09,2.19,4t8.4,1.16c1.38,0,2.07.52,2.07,1.55s-.61,1.63-1.81,1.8-5.52.26-12.92.26-13.53.09-18.35.26q-14.22.51-28.94.51c-2.07,0-3.11-.6-3.11-1.8q0-2.07,7.89-2.07c5.25,0,8.31-1,9.17-3.09l.78-3.6V148.37q0-25-.52-26c-.52-2.58-2.84-3.87-7-3.87h-8.78c-2.76,0-4.14-.56-4.14-1.69s1-1.77,3.09-1.93q28.8-1.29,46-12.14a8,8,0,0,1,2.82-1c1.38,0,2.06,1.38,2.06,4.14v14.73q13.7-17.83,35.15-17.83,22.21,0,28.94,15.5a44.54,44.54,0,0,1,3.49,14.47q.64,8,.65,33.08v37.47c0,5.35.42,8.49,1.29,9.44s3.66,1.42,8.4,1.42S363.05,214.78,363.05,216.16Z" style="fill:#231f20"/></svg>