<svg id="349fb3bc-b145-4adb-8b7d-a570cbb965b9" data-name="Layer 1" xmlns="http://www.w3.org/2000/svg" viewBox="0 0 410.83 395.96"><title>keelyn-2018-frames</title><path d="M10.25,110.68H42.9A48.46,48.46,0,0,1,58.7,113a30.41,30.41,0,0,1,12.38,8.32,32.58,32.58,0,0,1,7.68,14q2.13,8,2.14,21.67a108.11,108.11,0,0,1-1.18,17.18,36.08,36.08,0,0,1-5,13.34,31.77,31.77,0,0,1-12,11.63q-7.47,4.17-19.63,4.17H32v59.33H10.25ZM32,182.83H42.48q6.6,0,10.24-1.93a12.22,12.22,0,0,0,5.34-5.23,20.23,20.23,0,0,0,2-8q.33-4.69.33-10.46,0-5.33-.33-10.14a23.74,23.74,0,0,0-1.92-8.32,12.18,12.18,0,0,0-5-5.55q-3.42-2-9.82-2H32Z" style="fill:#231f20"/><path d="M92.63,154.44h21.78V166a66,66,0,0,1,13-9.39q6.39-3.4,15.79-3.41v23.05a17.53,17.53,0,0,0-6.62-1.28,26,26,0,0,0-7.36,1.17,20.33,20.33,0,0,0-7.26,4,21.19,21.19,0,0,0-5.44,7.26,25.79,25.79,0,0,0-2.13,11.1v64.24H92.63Z" style="fill:#231f20"/><path d="M151.29,110.68h21.77v21.77H151.29Zm0,43.76h21.77V262.65H151.29Z" style="fill:#231f20"/><path d="M186.55,154.44h21.77V164.9h.43a30.88,30.88,0,0,1,8.21-8.44q4.8-3.3,12.28-3.3a25.08,25.08,0,0,1,8.11,1.38,18.85,18.85,0,0,1,7.25,4.59,23.14,23.14,0,0,1,5.13,8.22,34.51,34.51,0,0,1,1.92,12.27v83H229.88V187.73q0-6-2.78-9.39a9.61,9.61,0,0,0-7.9-3.41q-6.18,0-8.53,3.84t-2.35,11.1v72.78H186.55Z" style="fill:#231f20"/><path d="M286.63,231.49q0,5.13,2.88,7.9a10.76,10.76,0,0,0,7.79,2.77q6.19,0,8.22-3.63a19.37,19.37,0,0,0,2.45-7.25h21.78a36,36,0,0,1-2.25,12.8A28.26,28.26,0,0,1,321,254.33a30.58,30.58,0,0,1-10.24,7,33.81,33.81,0,0,1-13.45,2.56A33.46,33.46,0,0,1,280,259.66a29.18,29.18,0,0,1-11.1-11.31,29.55,29.55,0,0,1-3.2-9.82,80,80,0,0,1-.85-12.16V190.72a80.11,80.11,0,0,1,.85-12.16,29.7,29.7,0,0,1,3.2-9.82A29.18,29.18,0,0,1,280,157.43a33.46,33.46,0,0,1,17.29-4.27,34.61,34.61,0,0,1,13.56,2.56,28.6,28.6,0,0,1,10.24,7.15,31.58,31.58,0,0,1,6.4,11,41.55,41.55,0,0,1,2.25,13.87H308q0-6.6-2.88-9.71a11.36,11.36,0,0,0-15.58,0q-2.88,3.1-2.88,9.29Z" style="fill:#231f20"/><path d="M360.67,216.76v14.73q0,5.13,2.88,7.9a10.76,10.76,0,0,0,7.79,2.77q6.2,0,8.22-3.63a19.57,19.57,0,0,0,2.46-7.25h21.77a36.23,36.23,0,0,1-2.24,12.8A28.53,28.53,0,0,1,395,254.33a30.72,30.72,0,0,1-10.25,7,33.78,33.78,0,0,1-13.45,2.56,33.4,33.4,0,0,1-17.28-4.27,28.74,28.74,0,0,1-14.31-21.13,80,80,0,0,1-.85-12.16V190.72a80.11,80.11,0,0,1,.85-12.16,29.48,29.48,0,0,1,3.21-9.82,29.11,29.11,0,0,1,11.1-11.31,33.4,33.4,0,0,1,17.28-4.27,34.61,34.61,0,0,1,13.56,2.56,28.6,28.6,0,0,1,10.24,7.15,32.13,32.13,0,0,1,6.41,10.78,38.69,38.69,0,0,1,2.24,13.23v29.88Zm0-17.07H382V187.31q0-6.19-2.89-9.29a11.36,11.36,0,0,0-15.58,0q-2.88,3.1-2.88,9.29Z" style="fill:#231f20"/></svg>