<svg id="18bab852-ee2d-48cc-824c-f93d1d770c43" data-name="Layer 1" xmlns="http://www.w3.org/2000/svg" viewBox="0 0 410.83 395.96"><title>keelyn-2018-frames</title><path d="M18.67,53H54.83V168.2h.71L108.38,53h36.16L95.26,154l58.5,151.41H115.47l-41.13-112L54.83,229.89v75.53H18.67Z" style="fill:#231f20"/><path d="M196.31,229.18v24.47q0,8.5,4.79,13.12T214,271.38q10.29,0,13.65-6a32.44,32.44,0,0,0,4.08-12.06h36.17a60.15,60.15,0,0,1-3.72,21.28,47.22,47.22,0,0,1-10.82,17,51,51,0,0,1-17,11.7A56.15,56.15,0,0,1,214,307.55q-16.66,0-28.72-7.1a48.49,48.49,0,0,1-18.44-18.79,49.07,49.07,0,0,1-5.32-16.31,134,134,0,0,1-1.41-20.21V185.92a134.21,134.21,0,0,1,1.41-20.21,49.22,49.22,0,0,1,5.32-16.31,48.55,48.55,0,0,1,18.44-18.79q12.06-7.1,28.72-7.09a57.64,57.64,0,0,1,22.52,4.25,47.64,47.64,0,0,1,17,11.88,53.55,53.55,0,0,1,10.64,17.91,64.13,64.13,0,0,1,3.72,22v49.64Zm0-28.36h35.46V180.25q0-10.27-4.79-15.42T214,159.69q-8.16,0-12.94,5.14t-4.79,15.42Z" style="fill:#231f20"/><path d="M327.51,229.18v24.47q0,8.5,4.78,13.12t12.94,4.61q10.29,0,13.66-6A32.42,32.42,0,0,0,363,253.29h36.17a60.15,60.15,0,0,1-3.72,21.28,47.09,47.09,0,0,1-10.82,17,51,51,0,0,1-17,11.7,56.11,56.11,0,0,1-22.34,4.26q-16.67,0-28.72-7.1a47.69,47.69,0,0,1-23.75-35.1,132.66,132.66,0,0,1-1.42-20.21V185.92a132.85,132.85,0,0,1,1.42-20.21,47.69,47.69,0,0,1,23.75-35.1q12.06-7.1,28.72-7.09a57.61,57.61,0,0,1,22.52,4.25,47.55,47.55,0,0,1,17,11.88,53.39,53.39,0,0,1,10.64,17.91,64.13,64.13,0,0,1,3.72,22v49.64Zm0-28.36H363V180.25q0-10.27-4.78-15.42t-12.95-5.14q-8.16,0-12.94,5.14t-4.78,15.42Z" style="fill:#231f20"/></svg>