<svg id="ba915ef5-d505-4b7e-9663-29395fea4f21" data-name="Layer 1" xmlns="http://www.w3.org/2000/svg" viewBox="0 0 410.83 395.96"><title>keelyn-2018-frames</title><path d="M15.52,163H1.41V140.42H15.52V121c0-7,1-12.84,3.1-17.63A33.06,33.06,0,0,1,27,91.47,32.17,32.17,0,0,1,38.8,84.7a44.7,44.7,0,0,1,13.68-2.12H65.74v27.09h-13q-8.46,0-8.46,9.87v20.88H65.74V163H44.3V283.47H15.52Z" style="fill:#231f20"/><path d="M74.48,140.42h28.78v15.24a87.06,87.06,0,0,1,17.22-12.42q8.46-4.5,20.87-4.51V169.2a23.31,23.31,0,0,0-8.74-1.69,34.47,34.47,0,0,0-9.74,1.55,26.73,26.73,0,0,0-9.59,5.22,28,28,0,0,0-7.2,9.59c-1.88,3.95-2.82,8.85-2.82,14.67v84.93H74.48Z" style="fill:#231f20"/><path d="M148.69,188.39a106.6,106.6,0,0,1,1.13-16.09,38,38,0,0,1,18.9-27.93q9.6-5.64,22.86-5.64t22.85,5.64a38.68,38.68,0,0,1,14.68,15,39.35,39.35,0,0,1,4.23,13,106.6,106.6,0,0,1,1.13,16.09v47.12a106.37,106.37,0,0,1-1.13,16.08,39.41,39.41,0,0,1-4.23,13,38.59,38.59,0,0,1-14.68,14.95q-9.59,5.66-22.85,5.65t-22.86-5.65a37.91,37.91,0,0,1-18.9-27.93,106.37,106.37,0,0,1-1.13-16.08ZM177.47,240q0,8.19,3.81,12.27t10.3,4.1q6.48,0,10.3-4.1T205.69,240V183.87q0-8.18-3.81-12.27t-10.3-4.09q-6.5,0-10.3,4.09t-3.81,12.27Z" style="fill:#231f20"/><path d="M255.63,140.42h28.78v13.83H285a40.94,40.94,0,0,1,10.86-11.15q6.36-4.36,16.23-4.37,9.3,0,15.52,4.51a46.41,46.41,0,0,1,10.15,9.88A60.3,60.3,0,0,1,349.58,143q6.5-4.23,18.06-4.23a35.55,35.55,0,0,1,11,1.83,26.93,26.93,0,0,1,10.16,6.07,31.55,31.55,0,0,1,7.34,10.86A41.45,41.45,0,0,1,399,173.71V283.47H370.18v-99q0-7.91-3.67-12.42t-10.44-4.51q-8.19,0-11.28,5.08c-2.08,3.38-3.11,8.28-3.11,14.67v96.21H312.9v-99q0-7.91-3.66-12.42t-10.45-4.51q-8.18,0-11.28,5.08c-2.07,3.38-3.1,8.28-3.1,14.67v96.21H255.63Z" style="fill:#231f20"/></svg>