<svg id="2cb24192-e936-4320-a676-568f9056a7ec" data-name="Layer 1" xmlns="http://www.w3.org/2000/svg" viewBox="0 0 410.83 288"><title>keelyn-2018-frames</title><path d="M53.38,75.76a60.45,60.45,0,0,1,9.47.79q5,.81,10.18,2.08v38.71A21.63,21.63,0,0,0,67,111.92a13.21,13.21,0,0,0-6.38-1.59,9.58,9.58,0,0,0-7.18,2.77c-1.8,1.85-2.71,4.5-2.71,7.94H73v16.2H50.7v37.37H11.22V137.24H2.74V121h8.48v-.45q0-21.16,11.48-33T53.38,75.76Z" style="fill:#231f20"/><path d="M159.14,115.68q0,8.49-5.17,13.65a17.64,17.64,0,0,1-13.14,5.17,21.55,21.55,0,0,1-15.94-7,15.43,15.43,0,0,0-4.47,7.18,36.21,36.21,0,0,0-1.4,10.68v29.27H79.6V97.83H119v16.32h.25q3.65-8.36,9.12-12.66a19.63,19.63,0,0,1,12.44-4.3,17.88,17.88,0,0,1,18.31,18.49Z" style="fill:#231f20"/><path d="M208.46,96.23a47,47,0,0,1,16.94,3,39.94,39.94,0,0,1,13.33,8.25,37.44,37.44,0,0,1,8.7,12.63,42.37,42.37,0,0,1,0,31.89,37.33,37.33,0,0,1-8.64,12.57,39.43,39.43,0,0,1-13.3,8.26,47.48,47.48,0,0,1-17.06,3A46.66,46.66,0,0,1,187,170.85,37.12,37.12,0,0,1,172,157a39.87,39.87,0,0,1-5.42-20.86,40.52,40.52,0,0,1,5.29-20.73,36.49,36.49,0,0,1,14.86-14.09A45.74,45.74,0,0,1,208.46,96.23Zm0,47.83a8.77,8.77,0,1,0-.06-17.53,9.22,9.22,0,0,0-3.48.63,7.68,7.68,0,0,0-2.68,1.82,8.57,8.57,0,0,0-1.75,2.81,9.48,9.48,0,0,0-.64,3.54,8.61,8.61,0,0,0,2.39,6.31A8.35,8.35,0,0,0,208.46,144.06Z" style="fill:#231f20"/><path d="M349.28,110.45a48.76,48.76,0,0,1,13.33-10.14,33.68,33.68,0,0,1,14.74-3.12q12.56,0,19.7,7.71t7.21,21.37v48.34H367V128.44a8.73,8.73,0,0,0-2-6.06,6.73,6.73,0,0,0-5.26-2.23,11.1,11.1,0,0,0-3.66.7,14.31,14.31,0,0,0-3.54,1.78v52H315.29V128.44a9.18,9.18,0,0,0-1.88-6,6.51,6.51,0,0,0-5.39-2.33,10.38,10.38,0,0,0-3.67.76,16,16,0,0,0-3.54,1.85v51.85H261.4V97.83h39.41v9.62a30.93,30.93,0,0,1,23.66-10.26,30.51,30.51,0,0,1,14.61,3.22A27.25,27.25,0,0,1,349.28,110.45Z" style="fill:#231f20"/></svg>