<svg id="dc2cdc93-c01e-49d2-8236-9b545a670693" data-name="Layer 1" xmlns="http://www.w3.org/2000/svg" viewBox="0 0 410.83 288"><title>keelyn-2018-frames</title><path d="M68.18,60.11v44a31.62,31.62,0,0,0,12.72-3.54A27.48,27.48,0,0,0,90.48,92a42,42,0,0,0,6-13.54,71.8,71.8,0,0,0,2.12-18.33H158q0,24.06-6.29,39.59a60.36,60.36,0,0,1-19.67,26,69.57,69.57,0,0,1,20.66,26.26q7.54,16.17,9,39.8H98.8q-2.16-47-30.62-48v48H10V60.11Z" style="fill:#231f20"/><path d="M225,85.73a59.6,59.6,0,0,1,28.9,7,47.72,47.72,0,0,1,20,20.18Q281,126.27,281,143.16v3.37h-54.5a24,24,0,0,0,3.88,7,24.67,24.67,0,0,0,5.86,5.35,27.5,27.5,0,0,0,7.38,3.36,30.83,30.83,0,0,0,8.58,1.16,45.94,45.94,0,0,0,8.36-.77,44.15,44.15,0,0,0,7.81-2.2,35.77,35.77,0,0,0,6.85-3.54,31.59,31.59,0,0,0,5.7-4.79v18.2a55.45,55.45,0,0,1-21.74,17.47q-12.49,5.47-28.63,5.47a74.65,74.65,0,0,1-17-1.68,63.46,63.46,0,0,1-14.7-5.13,51.77,51.77,0,0,1-12-8.24,49.21,49.21,0,0,1-9-10.95A50.25,50.25,0,0,1,172.36,154a58.48,58.48,0,0,1-1.81-15.36,54.1,54.1,0,0,1,6.82-27.25,47.67,47.67,0,0,1,19.23-18.8A58.35,58.35,0,0,1,225,85.73Zm-1.64,42.6h25.1q-.26-7.59-3.75-12a11.21,11.21,0,0,0-9.27-4.44,10.57,10.57,0,0,0-8.63,4.4q-3.45,4.23-3.45,10.95Z" style="fill:#231f20"/><path d="M348.3,85.73a59.53,59.53,0,0,1,28.89,7,47.69,47.69,0,0,1,20,20.18q7.17,13.38,7.16,30.27v3.37h-54.5a24,24,0,0,0,3.88,7,24.67,24.67,0,0,0,5.86,5.35,27.58,27.58,0,0,0,7.37,3.36,31,31,0,0,0,8.59,1.16,45.94,45.94,0,0,0,8.36-.77,44.15,44.15,0,0,0,7.81-2.2,35.77,35.77,0,0,0,6.85-3.54,31.18,31.18,0,0,0,5.69-4.79v18.2a55.35,55.35,0,0,1-21.73,17.47q-12.51,5.47-28.63,5.47a74.65,74.65,0,0,1-17-1.68,63.46,63.46,0,0,1-14.7-5.13,51.77,51.77,0,0,1-12-8.24,49.21,49.21,0,0,1-9-10.95A50.25,50.25,0,0,1,295.69,154a58.06,58.06,0,0,1-1.81-15.36,54.1,54.1,0,0,1,6.82-27.25,47.67,47.67,0,0,1,19.23-18.8A58.32,58.32,0,0,1,348.3,85.73Zm-1.64,42.6h25.1q-.25-7.59-3.75-12a11.21,11.21,0,0,0-9.27-4.44,10.57,10.57,0,0,0-8.63,4.4q-3.45,4.23-3.45,10.95Z" style="fill:#231f20"/></svg>