<svg id="6cba7726-64b5-4c9b-86d4-3cd761b1eb6d" data-name="Layer 1" xmlns="http://www.w3.org/2000/svg" viewBox="0 0 410.83 288"><title>keelyn-2018-frames</title><path d="M59.1,52.84q14.73,0,22.82,6t8.19,16.7a18.7,18.7,0,0,1-2.74,10.35A21.91,21.91,0,0,1,79.52,93,27.3,27.3,0,0,1,89,100.64a17.81,17.81,0,0,1,3.25,10.93q0,10.47-7.4,16.43t-19.84,6H7.82V52.84ZM43.78,85h1a23.86,23.86,0,0,0,4.94-.43A8.19,8.19,0,0,0,53,83.16a5.33,5.33,0,0,0,1.84-2.47,10.63,10.63,0,0,0,.56-3.64q0-4.15-2.42-6c-1.62-1.25-3.91-1.87-6.89-1.87H43.78Zm0,31.17h1.49q5.85,0,8.45-1.91t2.61-6.49q0-9.15-10-9.15h-2.5Z" style="fill:#231f20"/><path d="M101.65,70a25.43,25.43,0,0,0,7.45,2.71,44.2,44.2,0,0,0,9.41,1,40.33,40.33,0,0,0,8.83-.93A24.15,24.15,0,0,0,134.52,70v64H101.65Zm32.66-9.15a9,9,0,0,1-2.77,6.6,8.78,8.78,0,0,1-6.49,2.76,9.44,9.44,0,0,1-9.36-9.36,8.75,8.75,0,0,1,2.77-6.49,9,9,0,0,1,6.59-2.76,8.85,8.85,0,0,1,6.49,2.71A8.6,8.6,0,0,1,134.31,60.82Z" style="fill:#231f20"/><path d="M207.29,84.86q0,7.08-4.31,11.39a14.75,14.75,0,0,1-11,4.31,18,18,0,0,1-13.3-5.86,12.84,12.84,0,0,0-3.72,6,30.08,30.08,0,0,0-1.17,8.91V134H141V70h32.87V83.59H174A26.46,26.46,0,0,1,181.65,73,16.36,16.36,0,0,1,192,69.44a14.92,14.92,0,0,1,15.27,15.42Z" style="fill:#231f20"/><path d="M271,70V88H257.29v13.88a7.39,7.39,0,0,0,1.56,5,5.88,5.88,0,0,0,4.66,1.78q4.62,0,7.87-4.57v25.37a22.32,22.32,0,0,1-3.86,2.1,34.45,34.45,0,0,1-4.7,1.62,40.25,40.25,0,0,1-10.32,1.38,32.32,32.32,0,0,1-13.94-3,24.46,24.46,0,0,1-10.32-9,25.31,25.31,0,0,1-3.83-14V88H211l46.28-36.28V70Z" style="fill:#231f20"/><path d="M313.3,52.84V78.32a24.1,24.1,0,0,1,19.41-8.88q11,0,17.23,6.43t6.28,17.45V134H325.16V96.67a9.15,9.15,0,0,0-1.6-5.72,5.52,5.52,0,0,0-4.63-2,8.5,8.5,0,0,0-5.63,2.5V134H280.37V52.84Z" style="fill:#231f20"/><path d="M403.45,91.73V112.2H366V91.73Z" style="fill:#231f20"/><path d="M85.56,197.42a33,33,0,0,1,4.09-16.28A30.13,30.13,0,0,1,101,169.6a31.44,31.44,0,0,1,16.07-4.2,37,37,0,0,1,7.39.74,18.84,18.84,0,0,1,5,1.54V148.8h32.93V230H122.69a44.72,44.72,0,0,1-19.47-4,30.18,30.18,0,0,1-13.09-11.65A32.08,32.08,0,0,1,85.56,197.42Zm31.59,1.38q0,4.2,2.34,6t7.5,1.83h2.45V192.26a8.33,8.33,0,0,0-2.55-1.17,10.45,10.45,0,0,0-2.93-.43,6.05,6.05,0,0,0-4.89,2.34A8.85,8.85,0,0,0,117.15,198.8Z" style="fill:#231f20"/><path d="M239.65,230H206.78v-4.79a25.81,25.81,0,0,1-7.82,3.94,28,28,0,0,1-8.19,1.38,17.14,17.14,0,0,1-12.23-4.73,16.09,16.09,0,0,1-4.9-12,16.78,16.78,0,0,1,6.07-13.35q6.06-5.27,15.85-5.27a44.93,44.93,0,0,1,5.69.37,41,41,0,0,1,5.53,1.12,8.69,8.69,0,0,0-.93-4.07,8.34,8.34,0,0,0-2.63-3,12.42,12.42,0,0,0-4.1-1.81,22.15,22.15,0,0,0-5.37-.61,33.9,33.9,0,0,0-9.15,1.23,35.92,35.92,0,0,0-4.44,1.56c-1.54.66-3.17,1.43-4.87,2.32V173c.6-.35,1.44-.79,2.5-1.3s2.39-1.11,4-1.78,3.29-1.29,5.08-1.84a53.57,53.57,0,0,1,5.77-1.41,70.22,70.22,0,0,1,14.2-1.27q17.23,0,25,7.39T239.65,194Zm-38-12.39a7.78,7.78,0,0,0,5.11-1.76v-8.93c-1.14-.36-2.08-.62-2.85-.78a12.58,12.58,0,0,0-2.58-.24,7.13,7.13,0,0,0-4.73,1.52,5,5,0,0,0-1.81,4.07,5.61,5.61,0,0,0,2,4.36A7.07,7.07,0,0,0,201.67,217.58Z" style="fill:#231f20"/><path d="M278.8,165.93,286.51,183l7.4-17.07h31.91l-34.63,82H255.45l13.19-31.17-22.55-50.85Z" style="fill:#231f20"/></svg>