<svg id="bce15100-ed59-404e-951e-88f057e7af5d" data-name="Layer 1" xmlns="http://www.w3.org/2000/svg" viewBox="0 0 410.83 395.96"><title>keelyn-2018-frames</title><path d="M6.74,140.53H28.23a32,32,0,0,1,10.4,1.55,20,20,0,0,1,8.14,5.48,21.35,21.35,0,0,1,5.06,9.2A57.83,57.83,0,0,1,53.23,171a71.71,71.71,0,0,1-.77,11.31,23.65,23.65,0,0,1-3.3,8.78,20.85,20.85,0,0,1-7.87,7.65q-4.9,2.75-12.92,2.74h-7.3v39H6.74ZM21.07,188H28a14.53,14.53,0,0,0,6.74-1.27,8.05,8.05,0,0,0,3.51-3.44A13.33,13.33,0,0,0,39.54,178q.21-3.09.21-6.89,0-3.51-.21-6.67A15.55,15.55,0,0,0,38.27,159a8,8,0,0,0-3.3-3.65A12.78,12.78,0,0,0,28.51,154H21.07Z" style="fill:#231f20"/><path d="M88.49,233.23h-.28a26.31,26.31,0,0,1-5.69,6q-2.88,2.11-8.08,2.11a18.76,18.76,0,0,1-5.19-.77,13,13,0,0,1-5-2.81A14.65,14.65,0,0,1,60.47,232,26.31,26.31,0,0,1,59,222.42a50.52,50.52,0,0,1,1-10.61,16.72,16.72,0,0,1,3.58-7.58,15.47,15.47,0,0,1,7-4.49,34.94,34.94,0,0,1,11.1-1.48c1,0,2,.05,3.09.14s2.29.19,3.79.28v-7.44a10.9,10.9,0,0,0-1.55-6q-1.55-2.38-5.61-2.39a8.06,8.06,0,0,0-5.13,1.83,8.62,8.62,0,0,0-3,5.33H59.27q.7-9.69,6.46-15.45a20.44,20.44,0,0,1,6.75-4.42,23,23,0,0,1,8.85-1.62,24.76,24.76,0,0,1,8.42,1.41,18.77,18.77,0,0,1,6.82,4.21,20.27,20.27,0,0,1,4.56,7,26.47,26.47,0,0,1,1.69,9.84v49.58H88.49Zm0-23.31a23.64,23.64,0,0,0-3.93-.42,14.11,14.11,0,0,0-7.94,2.17c-2.2,1.46-3.3,4.1-3.3,7.94a10.37,10.37,0,0,0,2,6.6,6.52,6.52,0,0,0,5.47,2.53,7,7,0,0,0,5.69-2.39,10.07,10.07,0,0,0,2-6.74Z" style="fill:#231f20"/><path d="M113.35,169.33h14.32v7.58a43.82,43.82,0,0,1,8.57-6.18,21.85,21.85,0,0,1,10.4-2.25v15.17a11.7,11.7,0,0,0-4.36-.84,17.17,17.17,0,0,0-4.84.77,13.39,13.39,0,0,0-4.78,2.6,13.88,13.88,0,0,0-3.58,4.78,16.85,16.85,0,0,0-1.41,7.3v42.28H113.35Z" style="fill:#231f20"/><path d="M180.06,240.54H167.42l-18.54-71.21h15.17l9.55,45.5h.28l9.56-45.5H198.6Z" style="fill:#231f20"/><path d="M202.25,193.2a52,52,0,0,1,.57-8,18.85,18.85,0,0,1,9.41-13.91,24.43,24.43,0,0,1,22.75,0,18.85,18.85,0,0,1,9.41,13.91,52,52,0,0,1,.56,8v23.46a52.26,52.26,0,0,1-.56,8,19.56,19.56,0,0,1-2.1,6.46,19.26,19.26,0,0,1-7.31,7.44,24.43,24.43,0,0,1-22.75,0,18.82,18.82,0,0,1-9.41-13.9,52.2,52.2,0,0,1-.57-8Zm14.33,25.71q0,4.07,1.9,6.11a7.48,7.48,0,0,0,10.25,0c1.26-1.36,1.9-3.4,1.9-6.11V191c0-2.72-.64-4.76-1.9-6.11a7.46,7.46,0,0,0-10.25,0q-1.9,2-1.9,6.11Z" style="fill:#231f20"/><path d="M255.49,169.33h14.32v6.88h.28a20.45,20.45,0,0,1,5.41-5.55,14,14,0,0,1,8.08-2.18,16.39,16.39,0,0,1,5.34.92,12.32,12.32,0,0,1,4.77,3,15,15,0,0,1,3.37,5.4,22.58,22.58,0,0,1,1.27,8.08v54.64H284v-49.3a9.52,9.52,0,0,0-1.83-6.18,6.3,6.3,0,0,0-5.19-2.25q-4.08,0-5.62,2.53c-1,1.68-1.55,4.12-1.55,7.3v47.9H255.49Z" style="fill:#231f20"/><path d="M323.19,210.34V220a6.9,6.9,0,0,0,1.89,5.2,7.07,7.07,0,0,0,5.13,1.82c2.71,0,4.52-.79,5.41-2.38a12.89,12.89,0,0,0,1.61-4.78h14.33a23.65,23.65,0,0,1-1.48,8.43,18.64,18.64,0,0,1-4.28,6.74,20.18,20.18,0,0,1-6.74,4.64,22.31,22.31,0,0,1-8.85,1.68,22,22,0,0,1-11.38-2.81,18.9,18.9,0,0,1-9.41-13.9,53.56,53.56,0,0,1-.56-8V193.2a53.32,53.32,0,0,1,.56-8,18.93,18.93,0,0,1,9.41-13.91,22.08,22.08,0,0,1,11.38-2.81,22.84,22.84,0,0,1,8.92,1.69,18.81,18.81,0,0,1,6.74,4.7,21.07,21.07,0,0,1,4.21,7.1,25.21,25.21,0,0,1,1.48,8.71v19.66Zm0-11.24h14V191q0-4.08-1.89-6.11a7.47,7.47,0,0,0-10.26,0q-1.89,2-1.89,6.11Z" style="fill:#231f20"/><path d="M362.09,140.53h14.33v35.68h.28a20.3,20.3,0,0,1,5.41-5.55,13.92,13.92,0,0,1,8.07-2.18,16.39,16.39,0,0,1,5.34.92,12.35,12.35,0,0,1,4.78,3,15.17,15.17,0,0,1,3.37,5.4,22.81,22.81,0,0,1,1.26,8.08v54.64H390.61v-49.3a9.58,9.58,0,0,0-1.83-6.18,6.32,6.32,0,0,0-5.2-2.25c-2.71,0-4.59.84-5.62,2.53s-1.54,4.12-1.54,7.3v47.9H362.09Z" style="fill:#231f20"/></svg>