<svg id="26aa3c9f-d0c8-45ac-87fd-7eae62d5afd3" data-name="Layer 1" xmlns="http://www.w3.org/2000/svg" viewBox="0 0 410.83 288"><title>keelyn-2018-frames</title><path d="M116.38,156.68c0,1.09-2.15,1.57-6.44,1.46-5.09-.11-7.8,1-8.13,3.41q-.34,2.05-.34,13.48v7q-20.4,13.82-38.91,13.82-24.35,0-40.71-17.14T5.48,136Q5.48,109,22.28,91T64.45,73A51.38,51.38,0,0,1,86,78.1C88.78,79.36,90.67,80,91.7,80c1.82,0,3.37-1.37,4.63-4.11.57-1.37,1.19-2.06,1.88-2.06s1.2.58,1.2,1.72q0,.34-.51,6.85-.18,2.06-.18,9.77,0,5.84.69,17.83c0,2.17-.57,3.25-1.71,3.25-1.61,0-2.69-2.28-3.26-6.85Q92.39,91.29,84.5,82.55q-5.84-6.33-16.28-6.34-32.4,0-32.4,57.59,0,35.82,10.67,49.88a21.29,21.29,0,0,0,17.9,8.91q14.1,0,14.11-17.83,0-13.37-1.13-15t-5.81-1.63H67.23c-2.43,0-3.64-.52-3.64-1.54s1-1.55,2.91-1.55q6,0,15.08.18h32.74C115.69,155.23,116.38,155.71,116.38,156.68Z" style="fill:#231f20"/><path d="M181.33,130a11.55,11.55,0,0,1-2.91,8.14,9.75,9.75,0,0,1-7.54,3.17q-9.25,0-9.26-8.57a9.59,9.59,0,0,1,2.23-5.82,2.1,2.1,0,0,0,.52-1.2c0-1-.74-1.55-2.2-1.55q-5.76,0-8.8,9.06-1.68,5.13-1.69,25.13v27.53c0,3.08,1.55,4.73,4.63,5q2.74.17,6.51.17,1.89.16,1.89,1.2c0,.91-.51,1.37-1.54,1.37H118.26c-1.26,0-1.88-.37-1.88-1.12s.79-1.11,2.4-1.11c4.68-.11,7.51-.6,8.48-1.45s1.46-3.39,1.46-7.61l-.18-46.16q0-5.8-1.62-8t-7.29-2.74c-3-.21-4.66-.37-5-.48s-.6-.48-.6-1.12.45-1,1.37-1h6.34q13.2,0,28.45-5.48a32.66,32.66,0,0,1,.86,7.88v7.2q3.25-8.31,7.11-11.69a14.63,14.63,0,0,1,10-3.39,13,13,0,0,1,9.51,3.6A12.15,12.15,0,0,1,181.33,130Z" style="fill:#231f20"/><path d="M261.72,184.38q0,1.4-2.75,3.82A25.77,25.77,0,0,1,240.81,195q-7,0-10.2-3c-2.12-2-3.51-5.5-4.2-10.59q-7.71,14.06-21.08,14.05-7.38,0-11.91-4.62a16.42,16.42,0,0,1-4.55-12q0-21.6,37-25.54v-3.6q0-17.13-1.2-21.08l-.18-.86q-2.4-8.56-12.16-8.57a12.66,12.66,0,0,0-9.09,3.26q-3.44,3.26-3.43,6.34,0,1.71,4.12,2.06,6.16.51,6.17,7.54a8.46,8.46,0,0,1-2.49,6.25,8.7,8.7,0,0,1-6.43,2.49,11.38,11.38,0,0,1-8.14-3,10.06,10.06,0,0,1-3.17-7.63q0-7.36,7.37-13.37t19.37-6q17.82,0,24.85,6.34,5.65,5.31,5.66,18.51v29.31c0,5.71,0,9,.17,9.94q.85,7.2,5,7.2,2.91,0,7.2-4.12a2.33,2.33,0,0,1,1.37-.85A.77.77,0,0,1,261.72,184.38ZM225.9,164v-8.4q-16.64,3.26-16.63,18.85,0,12,8.23,12,4.62,0,6.51-5.14T225.9,164Z" style="fill:#231f20"/><path d="M351.7,192.42c0,.91-1.43,1.37-4.29,1.37H310.74c-1.61,0-2.4-.43-2.4-1.28s.67-1.12,2-1.12h1.34q4.38,0,5.13-1.12t.76-7.67V149.36q0-18.44-2.36-22.06c-1.35-2.06-3.77-3.1-7.26-3.1a11.92,11.92,0,0,0-8.6,3.25,10.91,10.91,0,0,0-3.37,8.21v51.8a3.43,3.43,0,0,0,1.45,2.66c.74.39,2.6.65,5.57.76.92,0,1.37.35,1.37,1s-.4,1.09-1.2,1.2-3.65.17-8.57.17-9,.05-12.17.17q-9.42.33-19.19.34c-1.37,0-2.06-.4-2.06-1.2s1.74-1.37,5.23-1.37,5.51-.68,6.08-2.05l.52-2.39V147.46q0-16.58-.34-17.26-.53-2.56-4.63-2.57h-5.83c-1.83,0-2.74-.37-2.74-1.12s.68-1.17,2-1.28q19.11-.86,30.54-8a5.32,5.32,0,0,1,1.87-.69c.91,0,1.37.92,1.37,2.74V129q9.09-11.82,23.31-11.82,14.75,0,19.2,10.28a29.92,29.92,0,0,1,2.31,9.6q.42,5.31.43,21.94v24.85c0,3.54.28,5.63.86,6.26s2.42.94,5.57.94S351.7,191.51,351.7,192.42Z" style="fill:#231f20"/><path d="M410.83,182.48c0,1.26-1.09,2.91-3.28,5q-8.46,8.06-23.31,8.05-13.64,0-18-6.68a11,11,0,0,1-2-4.8c-.18-1.48-.26-5.31-.26-11.48v-8.23a65.23,65.23,0,0,0,.34-6.86l-.34-3.6V126.09c0-2.06-.29-3.26-.86-3.6S360.9,122,358,122c-3.43,0-5.14-.45-5.14-1.37,0-.68.63-1.14,1.88-1.37q16.11-.51,27.77-17.48,1.54-2.4,2.4-2.4c.68,0,1,.8,1,2.4q-.18,14.75,1.2,16.11c.91.92,3.71,1.37,8.4,1.37a51.34,51.34,0,0,0,10.11-.68,1.43,1.43,0,0,1,.68-.17c.46,0,.69.35.69,1.07,0,1.68-.74,2.52-2.21,2.52q-7,.18-15.47.18H387v3.58q0,45.7.68,53.54,1.57,9.9,9.74,9.89,3.66,0,9.4-5.14,2.78-2.4,3.48-2.4C410.66,181.62,410.83,181.91,410.83,182.48Z" style="fill:#231f20"/></svg>