<svg id="881a320b-c026-410b-bebe-ccd8ec446f59" data-name="Layer 1" xmlns="http://www.w3.org/2000/svg" viewBox="0 0 410.83 288"><title>keelyn-2018-frames</title><path d="M95.8,60.11V191.72H42.5V60.11Z" style="fill:#231f20"/><path d="M159.79,87.88l12.51,27.69,12-27.69H236l-56.14,133h-58l21.39-50.54L106.75,87.88Z" style="fill:#231f20"/><path d="M369.62,191.72H319.26V130.66q0-5.68-2.33-9.06c-1.55-2.24-4.06-3.36-7.51-3.36a14.65,14.65,0,0,0-4.82,1,19.43,19.43,0,0,0-4.75,2.41v70.12h-53.3V87.88h53.3v13a47.08,47.08,0,0,1,15-10.7A44,44,0,0,1,332,87q18.72,0,28.12,10.44t9.48,28.89Z" style="fill:#231f20"/></svg>