<svg id="d3e09fb0-4875-4bee-a28b-8362ac43204c" data-name="Layer 1" xmlns="http://www.w3.org/2000/svg" viewBox="0 0 410.83 395.96"><title>keelyn-2018-frames</title><path d="M12.28,28.61H44.83q10.71,0,18.25,3.28a34.49,34.49,0,0,1,12.35,8.74,32.78,32.78,0,0,1,6.88,12.56,52.46,52.46,0,0,1,2.07,14.75v5.68a49.35,49.35,0,0,1-1,10.71,25.63,25.63,0,0,1-3,7.65,24.57,24.57,0,0,1-4.81,5.79,42.63,42.63,0,0,1-6.55,4.7,24,24,0,0,1,11.58,11q3.72,7.32,3.71,19.56v8.74q0,20.53-9.94,31.46T42.65,184.19H12.28Zm22.28,63.8H44.62q11.13,0,15-5.57t3.83-16.28q0-10.48-4.26-15.73T43.74,49.59H34.56Zm0,69.49h9.62q6.76,0,10.6-2a13.6,13.6,0,0,0,5.79-5.46,20.55,20.55,0,0,0,2.4-8.3q.44-4.8.44-10.49a69.8,69.8,0,0,0-.66-10.27A17,17,0,0,0,60,118.09a12.85,12.85,0,0,0-5.79-4.48,26.28,26.28,0,0,0-9.83-1.53H34.56Z" style="fill:#231f20"/><path d="M104.05,28.61h22.29V50.9H104.05Zm0,44.79h22.29V184.19H104.05Z" style="fill:#231f20"/><path d="M144.69,73.4H167V85.2a67.77,67.77,0,0,1,13.33-9.61q6.56-3.5,16.17-3.5v23.6a18.21,18.21,0,0,0-6.78-1.31,26.62,26.62,0,0,0-7.54,1.2,20.87,20.87,0,0,0-7.43,4,21.84,21.84,0,0,0-5.57,7.43A26.32,26.32,0,0,0,167,118.42v65.77H144.69Z" style="fill:#231f20"/><path d="M205.44,39.75h22.28V73.4h13.77V90.88H227.72v61.41a19.16,19.16,0,0,0,.77,6.11,6.28,6.28,0,0,0,2.4,3.28,8.83,8.83,0,0,0,4.26,1.31q2.63.22,6.34.22v21h-9.18a30.11,30.11,0,0,1-12.78-2.4,23.07,23.07,0,0,1-8.2-6.12,24.07,24.07,0,0,1-4.48-8.42,31.45,31.45,0,0,1-1.41-9.06V90.88H194.29V73.4h11.15Z" style="fill:#231f20"/><path d="M250,28.61H272.3v55.5h.43a31.77,31.77,0,0,1,8.42-8.63q4.92-3.39,12.56-3.39A25.74,25.74,0,0,1,302,73.51a19.31,19.31,0,0,1,7.42,4.7,23.66,23.66,0,0,1,5.25,8.41,35.38,35.38,0,0,1,2,12.57v85H294.37v-76.7q0-6.12-2.84-9.61a9.84,9.84,0,0,0-8.09-3.5q-6.33,0-8.74,3.93t-2.4,11.37v74.51H250Z" style="fill:#231f20"/><path d="M335.44,112.52h65.78v22.29H335.44Z" style="fill:#231f20"/><path d="M139.77,334.14c-1.45,1.6-2.84,3.09-4.15,4.48a23.2,23.2,0,0,1-4.37,3.6,20.88,20.88,0,0,1-5.46,2.41,26.56,26.56,0,0,1-7.21.87q-13.77,0-19.45-10.49a29.47,29.47,0,0,1-2.84-9.18,97.34,97.34,0,0,1-.87-14.64V269a170.43,170.43,0,0,1,.65-17.7,22.1,22.1,0,0,1,2.84-9.18,23.87,23.87,0,0,1,7.32-7.21q4.48-2.84,12.57-2.84A23.13,23.13,0,0,1,130.49,235a27.1,27.1,0,0,1,8.85,8.42h.43V188.61h22.29V344.19H139.77Zm-22.07-26q0,6.78,2.63,10.93t8.3,4.15a9.83,9.83,0,0,0,8.08-3.82,15.42,15.42,0,0,0,3.06-9.94V266.4a12.09,12.09,0,0,0-3.17-8.63,10.45,10.45,0,0,0-8-3.39q-6.34,0-8.63,3.93a17.93,17.93,0,0,0-2.3,9.18Z" style="fill:#231f20"/><path d="M222.59,332.83h-.44a41.21,41.21,0,0,1-8.85,9.39q-4.49,3.28-12.56,3.28a29.05,29.05,0,0,1-8.09-1.2,20.29,20.29,0,0,1-7.76-4.37,22.93,22.93,0,0,1-5.9-9q-2.3-5.79-2.29-15a79.07,79.07,0,0,1,1.53-16.5,26.19,26.19,0,0,1,5.57-11.8,24.07,24.07,0,0,1,10.82-7q6.76-2.29,17.26-2.29c1.6,0,3.2.07,4.81.22s3.56.29,5.9.43V267.49a17,17,0,0,0-2.41-9.39q-2.4-3.72-8.74-3.72a12.59,12.59,0,0,0-8,2.84,13.5,13.5,0,0,0-4.7,8.31H177.14q1.08-15.09,10.05-24a31.56,31.56,0,0,1,10.49-6.88,35.78,35.78,0,0,1,13.76-2.52,38.62,38.62,0,0,1,13.11,2.19,29,29,0,0,1,10.6,6.55,31.26,31.26,0,0,1,7.1,10.93,41,41,0,0,1,2.62,15.29v77.14H222.59Zm0-36.28a37.32,37.32,0,0,0-6.12-.65,21.9,21.9,0,0,0-12.35,3.39Q199,302.67,199,311.63q0,6.35,3.06,10.27a10.18,10.18,0,0,0,8.52,3.93c3.78,0,6.74-1.23,8.85-3.71s3.17-6,3.17-10.49Z" style="fill:#231f20"/><path d="M272.85,233.4l15.29,69h.44l15.07-69h23l-31.9,130a39.44,39.44,0,0,1-4.92,12.34,28.22,28.22,0,0,1-7.32,7.87,26.5,26.5,0,0,1-8.85,4.15,39.16,39.16,0,0,1-9.72,1.2h-6.12V368h5a16.75,16.75,0,0,0,5.69-.88,8.79,8.79,0,0,0,4.26-3.82,32.92,32.92,0,0,0,3.38-8.74q1.53-5.79,3.5-15.41L249.25,233.4Z" style="fill:#231f20"/></svg>