<svg id="96ed27d6-146f-4768-b24d-5e1df2251d91" data-name="Layer 1" xmlns="http://www.w3.org/2000/svg" viewBox="0 0 410.83 395.96"><title>keelyn-2018-frames</title><path d="M54.66,53H90.83V254.71q0,10.29,3.72,14t14,4.79v34A120.11,120.11,0,0,1,86,305.6a38.54,38.54,0,0,1-17-7.45q-6.91-5.49-10.64-15.43T54.66,257.2Z" style="fill:#231f20"/><path d="M145.79,125.65l24.82,112h.7l24.47-112H233l-51.77,211q-2.84,12-8,20a46,46,0,0,1-11.87,12.77A43.41,43.41,0,0,1,147,376.16a64,64,0,0,1-15.78,1.95h-9.93v-34h8.15a27.11,27.11,0,0,0,9.22-1.42q3.9-1.42,6.92-6.21t5.49-14.18q2.47-9.4,5.68-25L107.49,125.65Z" style="fill:#231f20"/><path d="M247.55,125.65h36.16V143h.71a51.5,51.5,0,0,1,13.65-14q8-5.49,20.39-5.49a41.65,41.65,0,0,1,13.48,2.3A31.21,31.21,0,0,1,344,133.45a38.37,38.37,0,0,1,8.51,13.65q3.19,8.34,3.19,20.39V305.42H319.53V181q0-9.92-4.61-15.6t-13.12-5.67q-10.29,0-14.19,6.38t-3.9,18.44V305.42H247.55Z" style="fill:#231f20"/></svg>