<svg id="b6571ecb-f09a-49af-8232-d826358408ce" data-name="Layer 1" xmlns="http://www.w3.org/2000/svg" viewBox="0 0 410.83 288"><title>keelyn-2018-frames</title><path d="M58.84,118A18.21,18.21,0,0,1,52,132.79q-6.84,5.6-18.16,5.6a60.79,60.79,0,0,1-8.11-.74v27.42c0,3.92.26,6.23.8,6.91s2.51,1.09,5.93,1.23c1.92-.07,2.88.23,2.88.91s-.57.9-1.71.9H5.45a20.06,20.06,0,0,1-4.06-.2q-.54-.19-.54-.6c0-.53.57-.8,1.71-.8q5.24-.1,6.25-1c.68-.57,1-2.22,1-4.93v-55q0-6.86-.54-8.25c-.36-.93-2.17-1.39-5.45-1.39-1.92,0-2.88-.29-2.88-.86s.89-1,2.67-1l30.54-.11q11.22,0,16.77,3.42Q58.85,109.23,58.84,118Zm-17.19.58q0-15.85-9.93-15.86-6,0-6,5.25V136a35.61,35.61,0,0,0,6-.32,11,11,0,0,0,5.34-2.46Q41.65,129.2,41.65,118.58Z" style="fill:#231f20"/><path d="M109.78,169.16c0,.58-.57,1.37-1.7,2.38a16.12,16.12,0,0,1-11.33,4.23c-2.92,0-5-.61-6.35-1.84s-2.19-3.42-2.62-6.6q-4.8,8.76-13.13,8.76a9.93,9.93,0,0,1-7.42-2.88,10.21,10.21,0,0,1-2.83-7.48q0-13.46,23.06-15.91v-2.24q0-10.68-.74-13.14l-.11-.53q-1.5-5.34-7.58-5.34a7.88,7.88,0,0,0-5.66,2,5.65,5.65,0,0,0-2.14,4c0,.71.86,1.14,2.56,1.28q3.85.31,3.85,4.7a5.29,5.29,0,0,1-1.55,3.9,5.43,5.43,0,0,1-4,1.55A7.12,7.12,0,0,1,67,144.11a6.25,6.25,0,0,1-2-4.76q0-4.59,4.59-8.33t12.07-3.73q11.1,0,15.48,4,3.52,3.31,3.53,11.53V161q0,5.34.1,6.2.54,4.49,3.1,4.48,1.82,0,4.49-2.56a1.42,1.42,0,0,1,.85-.53A.47.47,0,0,1,109.78,169.16ZM87.46,156.44v-5.23q-10.35,2-10.36,11.75,0,7.47,5.13,7.47,2.88,0,4.06-3.2C87.07,165.09,87.46,161.5,87.46,156.44Z" style="fill:#231f20"/><path d="M149.83,135.3a7.25,7.25,0,0,1-1.81,5.07,6.09,6.09,0,0,1-4.7,2c-3.85,0-5.77-1.77-5.77-5.33a6,6,0,0,1,1.39-3.64,1.32,1.32,0,0,0,.32-.74c0-.64-.46-1-1.37-1q-3.58,0-5.48,5.64-1,3.19-1,15.66v17.15a2.76,2.76,0,0,0,2.88,3.09c1.14.07,2.49.1,4.06.1.78.08,1.17.32,1.17.75s-.32.86-1,.86h-28c-.78,0-1.17-.23-1.17-.7s.49-.69,1.49-.69q4.38-.1,5.29-.91t.9-4.74l-.1-28.76q0-3.62-1-5c-.67-.92-2.19-1.49-4.54-1.71a31.1,31.1,0,0,1-3.15-.3c-.25-.06-.37-.3-.37-.7s.28-.6.85-.6h4a52.5,52.5,0,0,0,17.72-3.42,20.24,20.24,0,0,1,.54,4.92v4.48q2-5.17,4.43-7.28a9.1,9.1,0,0,1,6.25-2.12,8.09,8.09,0,0,1,5.92,2.25A7.57,7.57,0,0,1,149.83,135.3Z" style="fill:#231f20"/><path d="M197.78,129.1c0,.37-.85.58-2.56.64-1.93.08-3.26.51-4,1.3s-1.72,2.84-2.93,6.15q-1.83,5.28-4.49,13.06L175,173.85c-.57,1.64-1.21,2.45-1.92,2.45s-1.66-1.56-3-4.69-6.07-14.42-14-33.86q-2.24-5.44-2.67-6.19-1-1.4-4.8-1.39c-1.14,0-1.71-.28-1.71-.85s.39-.86,1.17-.86a12.28,12.28,0,0,1,1.71.11c1.14.28,5.09.36,11.86.21h10.68a3.84,3.84,0,0,1,1.7-.32c.79,0,1.18.25,1.18.75s-1.57.64-4.7.85c-.85.08-1.28.5-1.28,1.29s1.17,4.5,3.53,10.94,4.46,11.84,6.32,16.19q9-24.25,9-26.71c0-1.32-1.35-2-4.05-1.87-1.85.07-2.77-.19-2.77-.78,0-.44.28-.66.85-.66l4.81.32a12.9,12.9,0,0,1,2.88-.32h7C197.46,128.46,197.78,128.68,197.78,129.1Z" style="fill:#231f20"/><path d="M246.05,152.17a22.35,22.35,0,0,1-9,18.47,24.43,24.43,0,0,1-15.49,5.56A23.89,23.89,0,0,1,204.24,169a23.12,23.12,0,0,1-7.32-17,23.58,23.58,0,0,1,7.32-17.46,24.23,24.23,0,0,1,17.67-7.21,22.94,22.94,0,0,1,17,7.31A24.34,24.34,0,0,1,246.05,152.17Zm-16.13.11q0-13.25-1.8-18.16-2-5.44-6.48-5.44-4.14,0-6.47,5.71t-2.33,15.75q0,14,2.76,19.86c1.48,3.14,3.57,4.7,6.26,4.7q5,0,6.58-6Q229.93,163.07,229.92,152.28Z" style="fill:#231f20"/><path d="M306.71,174.17c0,.57-.89.85-2.67.85H281.18c-1,0-1.49-.26-1.49-.79s.42-.7,1.26-.7h.84c1.81,0,2.88-.23,3.19-.7s.47-2.06.47-4.78V147.34q0-11.49-1.47-13.74c-.84-1.29-2.34-1.93-4.52-1.93a7.41,7.41,0,0,0-5.36,2,6.79,6.79,0,0,0-2.1,5.11v32.28a2.08,2.08,0,0,0,.91,1.65,10.24,10.24,0,0,0,3.47.48c.57,0,.85.22.85.64s-.25.68-.75.75-2.28.1-5.34.1-5.59,0-7.58.11q-5.87.21-12,.21c-.85,0-1.28-.24-1.28-.74s1.08-.85,3.26-.85,3.43-.43,3.79-1.28l.32-1.49v-24.5q0-10.33-.21-10.76c-.22-1.06-1.18-1.6-2.89-1.6H251c-1.14,0-1.71-.23-1.71-.7s.43-.73,1.28-.79q11.89-.54,19-5a3.29,3.29,0,0,1,1.17-.43c.57,0,.85.57.85,1.71v6.09a17.52,17.52,0,0,1,14.53-7.37q9.18,0,12,6.4a18.67,18.67,0,0,1,1.44,6q.27,3.3.27,13.66v15.49c0,2.21.17,3.51.53,3.9s1.51.58,3.47.58S306.71,173.6,306.71,174.17Z" style="fill:#231f20"/><path d="M352.2,161.78c0,1.57-.92,3.63-2.78,6.19q-6,8.24-15.59,8.23-10.79,0-17.72-6.84t-6.95-17.51a24.2,24.2,0,0,1,6.73-17.46,22.33,22.33,0,0,1,16.77-7,21.67,21.67,0,0,1,11.64,3,15.29,15.29,0,0,1,6.94,9.51,34.3,34.3,0,0,1,.64,4.59q-2.46.28-19.76.43-2.67,0-6.72.21c-.22,2.55-.32,4.72-.32,6.49q0,12.45,5.23,17.66a10.3,10.3,0,0,0,7.58,3.08,12,12,0,0,0,7.21-2.56,16.49,16.49,0,0,0,5.29-6.62c.56-1.35,1-2,1.38-2S352.2,161.35,352.2,161.78Zm-13.46-18.69c.08-5.44-.32-9.22-1.17-11.34a4.53,4.53,0,0,0-4.48-3.18q-6.52,0-7.48,14.52h13.13Z" style="fill:#231f20"/><path d="M410.51,174.49c0,.43-.32.64-1,.64H401a112.5,112.5,0,0,1-11.31-.32H388l-2.57.32c-.92.07-1.38-.2-1.38-.8s.17-.7.53-.7H387c1.56.08,2.45-.35,2.67-1.28.14-.56.21-4.13.21-10.68V145.76q0-9.93-1-11.74c-.91-1.86-2.68-2.78-5.29-2.78a7,7,0,0,0-6.36,3.75q-1.07,1.83-1.06,7.84v29.29c-.07,1.08,1.39,1.62,4.4,1.62.62,0,.94.21.94.64s-.46.75-1.39.75h-.85a7.88,7.88,0,0,0-2.57-.32h-4.7l-6,.11-6.3.21h-3.2c-1.07,0-1.6-.21-1.6-.64a.44.44,0,0,1,.21-.43,2.71,2.71,0,0,1,1-.1,18.56,18.56,0,0,0,4.81-.33c.49-.21.82-1,1-2.45q.1-1.29.11-12.82V119.17q0-11.53-.49-13.3T357,104.11c-2.07,0-3.1-.21-3.1-.64s1.2-.71,3.61-.85a66.36,66.36,0,0,0,15.41-2.78,8.08,8.08,0,0,1,2-.43c.57,0,.85,2,.85,6v29.48a19.41,19.41,0,0,1,6-6,16.61,16.61,0,0,1,8-1.6q10.57,0,13.24,8.54,1,2.78,1,9v24.88c0,1.86.31,3,.91,3.42s2.12.64,4.54.64C410.15,173.74,410.51,174,410.51,174.49Z" style="fill:#231f20"/></svg>