<svg id="9d4bec01-c153-4941-a77d-88c7f1309386" data-name="Layer 1" xmlns="http://www.w3.org/2000/svg" viewBox="0 0 410.83 288"><title>keelyn-2018-frames</title><path d="M85.62,106.16q0,13.36-10,21.52t-26.41,8.16a88.61,88.61,0,0,1-11.81-1.09v39.9q0,8.58,1.16,10.06t8.63,1.79c2.8-.1,4.19.33,4.19,1.32s-.83,1.32-2.48,1.32h-41A30.54,30.54,0,0,1,2,188.85c-.52-.2-.78-.49-.78-.88,0-.77.83-1.16,2.49-1.16q7.61-.15,9.09-1.4c1-.83,1.48-3.22,1.48-7.17V98.13q0-10-.78-12t-7.93-2c-2.79,0-4.19-.42-4.19-1.25s1.29-1.4,3.88-1.4l44.44-.16q16.32,0,24.4,5Q85.61,93.43,85.62,106.16Zm-25,.85q0-23.07-14.45-23.07-8.7,0-8.7,7.64v40.84a51.6,51.6,0,0,0,8.7-.47,15.84,15.84,0,0,0,7.77-3.58Q60.6,122.45,60.6,107Z" style="fill:#231f20"/><path d="M148.86,131.34a10.5,10.5,0,0,1-2.64,7.38,8.88,8.88,0,0,1-6.84,2.87q-8.38,0-8.39-7.77a8.65,8.65,0,0,1,2-5.28,1.93,1.93,0,0,0,.47-1.09c0-.93-.67-1.4-2-1.4q-5.2,0-8,8.22Q122,138.92,122,157.05V182q0,4.19,4.19,4.5,2.49.15,5.91.15c1.14.11,1.71.47,1.71,1.09,0,.83-.47,1.24-1.4,1.24H91.68c-1.14,0-1.71-.33-1.71-1s.72-1,2.17-1q6.38-.15,7.69-1.31c.88-.78,1.33-3.08,1.33-6.9L101,136.91q0-5.28-1.48-7.29t-6.6-2.48a45.37,45.37,0,0,1-4.58-.44c-.37-.09-.55-.43-.55-1s.42-.87,1.25-.87h5.75a76.65,76.65,0,0,0,25.79-5,29.44,29.44,0,0,1,.78,7.14v6.53q2.94-7.53,6.44-10.6a13.27,13.27,0,0,1,9.09-3.07,11.82,11.82,0,0,1,8.63,3.26A11,11,0,0,1,148.86,131.34Z" style="fill:#231f20"/><path d="M194.7,187.9c0,.72-.47,1.08-1.4,1.08H154.13c-1.24,0-1.85-.33-1.85-1,0-.5,1.18-.79,3.57-.87q5.28-.15,6.21-1.17t.94-6.17V135q0-5.92-1-7.1c-.68-.79-2.72-1.18-6.14-1.18a24.7,24.7,0,0,1-3.81-.15c-.36-.1-.54-.47-.54-1.09s.78-1.09,2.33-1.09q17.08-.15,29.21-5.28.32,1.86.78,10.26v48.94q0,6.38,1.16,7.46t8,1.09C194.12,186.81,194.7,187.17,194.7,187.9ZM183.82,89.38a10.34,10.34,0,0,1-3,7.46,9.84,9.84,0,0,1-7.31,3.11A10.29,10.29,0,0,1,166,97a10,10,0,0,1-3-7.46,9.29,9.29,0,0,1,3-7.15,11,11,0,0,1,7.79-2.8,9.8,9.8,0,0,1,7.15,2.8A9.39,9.39,0,0,1,183.82,89.38Z" style="fill:#231f20"/><path d="M279.38,187.9c0,.83-1.3,1.24-3.89,1.24H242.24c-1.45,0-2.17-.39-2.17-1.16s.6-1,1.83-1h1.22c2.64,0,4.19-.33,4.65-1s.69-3,.69-6.95V148.86q0-16.71-2.14-20-1.84-2.81-6.58-2.81a10.81,10.81,0,0,0-7.8,3,9.88,9.88,0,0,0-3.06,7.44v47a3.08,3.08,0,0,0,1.32,2.41c.67.36,2.35.59,5.05.69.83,0,1.24.32,1.24.93s-.36,1-1.09,1.09-3.31.15-7.77.15-8.13.06-11,.16q-8.55.3-17.4.31c-1.24,0-1.87-.36-1.87-1.09s1.58-1.24,4.74-1.24,5-.62,5.52-1.86l.47-2.16V147.14q0-15-.31-15.65c-.32-1.55-1.71-2.33-4.2-2.33h-5.28c-1.66,0-2.49-.34-2.49-1s.62-1.07,1.86-1.17q17.31-.77,27.68-7.3a4.89,4.89,0,0,1,1.7-.62c.82,0,1.24.83,1.24,2.49v8.85q8.24-10.71,21.13-10.72,13.37,0,17.4,9.32a27,27,0,0,1,2.1,8.71q.39,4.81.39,19.89v22.53q0,4.81.77,5.67c.52.57,2.2.85,5.05.85S279.38,187.07,279.38,187.9Z" style="fill:#231f20"/><path d="M342.31,135.69a8.55,8.55,0,0,1-2.18,6.06,7.31,7.31,0,0,1-5.59,2.33q-8.24,0-8.24-7.31a12.43,12.43,0,0,1,1-4.42,11.65,11.65,0,0,0,1-3.66,6.67,6.67,0,0,0-2.25-5,7.82,7.82,0,0,0-5.52-2.09q-14.13,0-14.14,31.54,0,18,6.22,25.79a14.71,14.71,0,0,0,11.81,5.91q7.31,0,14.92-9.48c.62-.83,1.19-1.24,1.71-1.24s.62.31.62.93q0,3-5.6,8.23a27.29,27.29,0,0,1-19.42,7.62,32.25,32.25,0,0,1-23.85-10A33.39,33.39,0,0,1,283,156.51q0-15.54,10.41-26.18A34.45,34.45,0,0,1,319,119.68q9.79,0,16.55,4.66T342.31,135.69Z" style="fill:#231f20"/><path d="M408.81,169.87q0,3.42-4,9-8.7,12-22.68,12-15.7,0-25.8-9.95t-10.1-25.48q0-15.22,9.79-25.41a32.49,32.49,0,0,1,24.4-10.17q9.94,0,16.93,4.35A22.19,22.19,0,0,1,407.41,138a48.75,48.75,0,0,1,.94,6.68q-3.59.42-28.75.62-3.89,0-9.79.31c-.31,3.72-.46,6.86-.46,9.44q0,18.1,7.61,25.69a15,15,0,0,0,11,4.49,17.46,17.46,0,0,0,10.49-3.72,23.92,23.92,0,0,0,7.69-9.64c.83-2,1.5-2.95,2-2.95S408.81,169.25,408.81,169.87Zm-19.58-27.19q.16-11.88-1.7-16.51c-1.25-3.08-3.42-4.62-6.53-4.62q-9.48,0-10.88,21.13h19.11Z" style="fill:#231f20"/></svg>