<svg id="48f646ac-1437-4e41-965c-557ab89cad6d" data-name="Layer 1" xmlns="http://www.w3.org/2000/svg" viewBox="0 0 410.83 288"><title>keelyn-2018-frames</title><path d="M10.3,56.26H32.18v65.43h27V56.26H81.1V209H59.21V141h-27v68H10.3Z" style="fill:#231f20"/><path d="M141.81,197.85h-.43a40.34,40.34,0,0,1-8.69,9.22q-4.4,3.23-12.34,3.22a28.29,28.29,0,0,1-7.93-1.18,19.7,19.7,0,0,1-7.62-4.29A22.4,22.4,0,0,1,99,196q-2.25-5.68-2.26-14.7a77,77,0,0,1,1.51-16.2,25.64,25.64,0,0,1,5.47-11.58,23.54,23.54,0,0,1,10.62-6.87q6.65-2.25,16.94-2.25c1.58,0,3.15.07,4.72.21s3.51.29,5.8.43V133.7a16.7,16.7,0,0,0-2.36-9.22q-2.37-3.65-8.58-3.65a12.33,12.33,0,0,0-7.83,2.79,13.28,13.28,0,0,0-4.62,8.15H97.18q1.08-14.81,9.87-23.6a30.92,30.92,0,0,1,10.3-6.75A35.18,35.18,0,0,1,130.87,99a38.28,38.28,0,0,1,12.87,2.14,28.5,28.5,0,0,1,10.4,6.44,30.75,30.75,0,0,1,7,10.73,40.4,40.4,0,0,1,2.57,15V209H141.81Zm0-35.61a36.07,36.07,0,0,0-6-.65,21.49,21.49,0,0,0-12.12,3.33q-5,3.33-5,12.12,0,6.22,3,10.08A10,10,0,0,0,130,191a10.81,10.81,0,0,0,8.69-3.64q3.11-3.65,3.11-10.3Z" style="fill:#231f20"/><path d="M179.78,100.24h21.88v9.86a54,54,0,0,1,8.37-7.93q4.29-3.23,12.44-3.22,13.51,0,19.09,10.3a28.9,28.9,0,0,1,2.79,9,95.27,95.27,0,0,1,.86,14.37V174a167.51,167.51,0,0,1-.64,17.37,21.57,21.57,0,0,1-2.79,9,23.25,23.25,0,0,1-7.19,7.08q-4.4,2.79-12.33,2.79a22.64,22.64,0,0,1-11.48-2.89,26.62,26.62,0,0,1-8.69-8.26h-.43V253H179.78Zm43.55,35.39q0-6.65-2.57-10.72t-8.16-4.08a9.63,9.63,0,0,0-7.93,3.76,15.09,15.09,0,0,0-3,9.76v42.26a11.91,11.91,0,0,0,3.11,8.47,10.26,10.26,0,0,0,7.83,3.33q6.22,0,8.48-3.86a17.59,17.59,0,0,0,2.25-9Z" style="fill:#231f20"/><path d="M263.23,100.24h21.88v9.86a54,54,0,0,1,8.37-7.93q4.29-3.23,12.44-3.22,13.51,0,19.1,10.3a29.44,29.44,0,0,1,2.79,9,95.49,95.49,0,0,1,.85,14.37V174a167.51,167.51,0,0,1-.64,17.37,21.57,21.57,0,0,1-2.79,9A23.25,23.25,0,0,1,318,207.5q-4.4,2.79-12.33,2.79a22.64,22.64,0,0,1-11.48-2.89,26.62,26.62,0,0,1-8.69-8.26h-.43V253H263.23Zm43.55,35.39q0-6.65-2.57-10.72t-8.15-4.08a9.64,9.64,0,0,0-7.94,3.76,15.09,15.09,0,0,0-3,9.76v42.26a11.91,11.91,0,0,0,3.11,8.47,10.29,10.29,0,0,0,7.84,3.33q6.21,0,8.47-3.86a17.59,17.59,0,0,0,2.25-9Z" style="fill:#231f20"/><path d="M358.05,100.24l15,67.79h.43l14.8-67.79h22.53L379.51,227.88A38.81,38.81,0,0,1,374.68,240a27.65,27.65,0,0,1-7.19,7.73,25.88,25.88,0,0,1-8.68,4.07,38.26,38.26,0,0,1-9.55,1.18h-6V232.39h4.94a16.34,16.34,0,0,0,5.57-.86,8.59,8.59,0,0,0,4.19-3.75,32.25,32.25,0,0,0,3.32-8.58q1.5-5.7,3.44-15.13L334.88,100.24Z" style="fill:#231f20"/></svg>