<svg id="68a948b4-8f91-450d-acba-6f5bc48474cd" data-name="Layer 1" xmlns="http://www.w3.org/2000/svg" viewBox="0 0 410.83 288"><title>keelyn-2018-frames</title><path d="M103.62,164.56c0,.24-.07,5.86-.18,16.85q-.19,8.68-.28,12.5c-.06,2.53-.09,3.74-.09,3.62q-47.82-2.17-83.69-1.27H4.17c-2.18,0-3.26-.46-3.26-1.37,0-.68.27-1.08.81-1.19s2.39-.29,5.53-.52q8.5-.54,9.24-4.88a34.92,34.92,0,0,0,.36-5.25V91.35q0-10.86-.18-11.94c-.13-1.93-.73-3.26-1.81-4s-3.33-1.09-6.71-1.09q-5.61,0-5.61-1.62,0-1.81,5-1.81t13.86-.18Q54.7,70,75.9,70.36H88.22q4,0,9.78-.54l1.63,19.75q.9,9.42.91,11.59A1.6,1.6,0,0,1,98.72,103q-1.81,0-2.36-4.71-1.65-12.49-10.09-18.2t-25-5.71q-5.1,0-17.45.54v53.44q20,.18,25.21-2.81t7-15.48q.91-6.71,2.73-6.71c1.09,0,1.64,1.09,1.64,3.26s-.18,6.65-.54,13.41q-.19,3.44-.19,9.24,0,15.57.37,23.55a17,17,0,0,1,.18,2.71c0,1.45-.55,2.18-1.64,2.18a1.59,1.59,0,0,1-1.64-.82A38.34,38.34,0,0,1,75.88,151q-1.83-12.85-5-16t-14.65-3.17H43.84v60.87H55.47q20-.36,24.35-.91a25.66,25.66,0,0,0,10.53-4A20,20,0,0,0,96.62,180q1.72-4.17,3.72-15.4c.37-1.81,1-2.72,1.82-2.72S103.62,162.75,103.62,164.56Z" style="fill:#231f20"/><path d="M179.15,129.24a12.22,12.22,0,0,1-3.08,8.6,10.3,10.3,0,0,1-8,3.35q-9.78,0-9.78-9.06a10.09,10.09,0,0,1,2.35-6.15,2.2,2.2,0,0,0,.55-1.27c0-1.09-.78-1.63-2.33-1.63q-6.07,0-9.29,9.57-1.78,5.43-1.79,26.56V188.3c0,3.26,1.63,5,4.89,5.24,1.93.13,4.23.18,6.89.18,1.33.13,2,.55,2,1.27,0,1-.54,1.45-1.63,1.45H112.49c-1.33,0-2-.39-2-1.18s.84-1.17,2.53-1.17q7.43-.18,9-1.54c1-.9,1.54-3.58,1.54-8l-.18-48.78c0-4.1-.58-6.93-1.72-8.49s-3.72-2.53-7.7-2.89q-4.71-.34-5.34-.51c-.43-.12-.64-.51-.64-1.19s.48-1,1.45-1h6.7q14,0,30.07-5.8a34.26,34.26,0,0,1,.91,8.33v7.61q3.43-8.78,7.52-12.35a15.44,15.44,0,0,1,10.59-3.59,13.78,13.78,0,0,1,10.06,3.81A12.86,12.86,0,0,1,179.15,129.24Z" style="fill:#231f20"/><path d="M278.6,195.17c0,1-1.51,1.45-4.53,1.45H235.31c-1.7,0-2.54-.45-2.54-1.35s.71-1.18,2.13-1.18h1.43c3.08,0,4.88-.4,5.42-1.19s.8-3.49.8-8.1V149.66q0-19.49-2.5-23.3c-1.42-2.19-4-3.28-7.66-3.28a12.58,12.58,0,0,0-9.1,3.43,11.55,11.55,0,0,0-3.56,8.67v54.76a3.61,3.61,0,0,0,1.54,2.8q1.17.63,5.88.81c1,0,1.45.36,1.45,1.09s-.42,1.14-1.27,1.26-3.86.18-9.05.18-9.48.06-12.86.18q-10,.36-20.29.36c-1.45,0-2.18-.42-2.18-1.26s1.84-1.45,5.53-1.45,5.82-.72,6.43-2.17l.54-2.52V147.66q0-17.52-.36-18.25c-.36-1.8-2-2.71-4.89-2.71H184c-1.93,0-2.9-.39-2.9-1.18s.72-1.24,2.16-1.36q20.2-.9,32.28-8.51a5.66,5.66,0,0,1,2-.72c1,0,1.44,1,1.44,2.89v10.33q9.6-12.5,24.64-12.5,15.57,0,20.29,10.87a31.44,31.44,0,0,1,2.44,10.14q.45,5.63.46,23.19v26.27c0,3.74.29,5.95.9,6.61s2.56,1,5.89,1S278.6,194.21,278.6,195.17Z" style="fill:#231f20"/><path d="M331,195.17c0,.85-.54,1.27-1.62,1.27H283.66c-1.44,0-2.16-.38-2.16-1.16,0-.58,1.38-.92,4.16-1q6.16-.18,7.25-1.37c.72-.79,1.09-3.18,1.09-7.19V133.45c0-4.61-.4-7.37-1.18-8.28s-3.17-1.37-7.16-1.37a27.89,27.89,0,0,1-4.43-.18c-.43-.12-.64-.54-.64-1.27s.91-1.27,2.72-1.27q19.92-.17,34.05-6.15.38,2.17.91,11.95v57.06c0,5,.45,7.85,1.36,8.7s4,1.27,9.33,1.27C330.29,193.91,331,194.33,331,195.17ZM318.27,80.33A12,12,0,0,1,314.75,89a11.44,11.44,0,0,1-8.52,3.63,11.94,11.94,0,0,1-8.71-3.45A11.62,11.62,0,0,1,294,80.51a10.83,10.83,0,0,1,3.52-8.33,12.79,12.79,0,0,1,9.08-3.27,11.42,11.42,0,0,1,8.33,3.27A10.9,10.9,0,0,1,318.27,80.33Z" style="fill:#231f20"/><path d="M408.48,174.16q0,4-4.71,10.51-10.15,14-26.45,14-18.3,0-30.07-11.6t-11.77-29.71q0-17.75,11.41-29.61t28.44-11.87q11.6,0,19.74,5.07A25.91,25.91,0,0,1,406.85,137a59.39,59.39,0,0,1,1.09,7.79q-4.17.48-33.52.72-4.53,0-11.41.36-.54,6.49-.54,11,0,21.1,8.87,30a17.51,17.51,0,0,0,12.86,5.23,20.29,20.29,0,0,0,12.23-4.34,27.84,27.84,0,0,0,9-11.23c1-2.3,1.75-3.45,2.35-3.45S408.48,173.44,408.48,174.16Zm-22.83-31.7q.18-13.85-2-19.24t-7.61-5.4q-11,0-12.68,24.64h22.28Z" style="fill:#231f20"/></svg>