<svg id="6834684c-debe-4793-a249-962f2c230acd" data-name="Layer 1" xmlns="http://www.w3.org/2000/svg" viewBox="0 0 410.83 288"><title>keelyn-2018-frames</title><path d="M59,126.16a17.31,17.31,0,0,1-8.58,15,17,17,0,0,1-14.31,1.28,25.77,25.77,0,0,1-6-3.47v21.18H7.39V108.78H38.91a29,29,0,0,1,5.35.49,22,22,0,0,1,4.8,1.5,17.52,17.52,0,0,1,4.07,2.54,15.72,15.72,0,0,1,3.15,3.59A16.68,16.68,0,0,1,59,126.16Zm-28.85,4.91a7.29,7.29,0,0,0,1.88.27,6.24,6.24,0,0,0,2.31-.42,5.14,5.14,0,0,0,3-3,6.66,6.66,0,0,0,.42-2.41,5.85,5.85,0,0,0-1.37-4.11,4.91,4.91,0,0,0-3.78-1.48H30.12Z" style="fill:#231f20"/><path d="M103.86,160.16H83.05v-3a16.23,16.23,0,0,1-5,2.49,17.53,17.53,0,0,1-5.19.88,10.83,10.83,0,0,1-7.74-3,10.18,10.18,0,0,1-3.1-7.61,10.65,10.65,0,0,1,3.84-8.45,14.76,14.76,0,0,1,10-3.33,28.8,28.8,0,0,1,3.61.23,27.46,27.46,0,0,1,3.5.71,5.57,5.57,0,0,0-.59-2.58,5.18,5.18,0,0,0-1.67-1.88,7.78,7.78,0,0,0-2.59-1.15,14.14,14.14,0,0,0-3.4-.38,21.09,21.09,0,0,0-8.6,1.77c-1,.41-2,.9-3.08,1.46V124.1c.38-.22.9-.5,1.58-.82s1.51-.7,2.52-1.13A32.73,32.73,0,0,1,70.44,121a34.19,34.19,0,0,1,3.65-.9,45.07,45.07,0,0,1,9-.8q10.9,0,15.83,4.68t5,13.43Zm-24-7.84a4.88,4.88,0,0,0,3.23-1.12v-5.65a18.39,18.39,0,0,0-1.8-.49,8.18,8.18,0,0,0-1.64-.15,4.49,4.49,0,0,0-3,1,3.17,3.17,0,0,0-1.15,2.57,3.55,3.55,0,0,0,1.25,2.76A4.44,4.44,0,0,0,79.82,152.32Z" style="fill:#231f20"/><path d="M151.71,129.05a9.74,9.74,0,0,1-2.73,7.21,9.33,9.33,0,0,1-6.93,2.72,11.38,11.38,0,0,1-8.42-3.7,8.14,8.14,0,0,0-2.36,3.79,19.14,19.14,0,0,0-.74,5.64v15.45h-20.8V119.62h20.8v8.62h.14a16.74,16.74,0,0,1,4.81-6.68,10.33,10.33,0,0,1,6.57-2.27,9.44,9.44,0,0,1,9.66,9.76Z" style="fill:#231f20"/><path d="M174.57,119.62,179.08,130l4.41-10.34H204.3l-17.57,40.54H171.34l-17.58-40.5Z" style="fill:#231f20"/><path d="M226,118.78a24.7,24.7,0,0,1,8.94,1.57,20.87,20.87,0,0,1,7,4.36,19.74,19.74,0,0,1,4.59,6.66,21.38,21.38,0,0,1,1.65,8.46,21.16,21.16,0,0,1-1.63,8.38,19.73,19.73,0,0,1-4.56,6.63,20.94,20.94,0,0,1-7,4.36,24.89,24.89,0,0,1-9,1.57,24.64,24.64,0,0,1-11.31-2.6,19.49,19.49,0,0,1-7.95-7.34,21,21,0,0,1-2.86-11,21.44,21.44,0,0,1,2.79-11,19.28,19.28,0,0,1,7.85-7.44A24.16,24.16,0,0,1,226,118.78ZM226,144a4.63,4.63,0,1,0,0-9.26,4.9,4.9,0,0,0-1.84.34,4.11,4.11,0,0,0-1.41,1,4.59,4.59,0,0,0-.93,1.48,5.18,5.18,0,0,0-.34,1.87,4.54,4.54,0,0,0,1.27,3.33A4.37,4.37,0,0,0,226,144Z" style="fill:#231f20"/><path d="M302,160.16H282.37V136.32a6.06,6.06,0,0,0-.91-3.53,3.29,3.29,0,0,0-2.93-1.31,5.57,5.57,0,0,0-1.88.37,7.14,7.14,0,0,0-1.85.94v27.37H254V119.62H274.8v5.09a18.23,18.23,0,0,1,5.87-4.18,17.18,17.18,0,0,1,6.68-1.24q7.31,0,11,4.07t3.7,11.28Z" style="fill:#231f20"/><path d="M328.73,118.78A23.24,23.24,0,0,1,340,121.51a18.62,18.62,0,0,1,7.81,7.88,24.67,24.67,0,0,1,2.79,11.81v1.32H329.33a9.65,9.65,0,0,0,3.81,4.83,10.48,10.48,0,0,0,2.88,1.31,11.69,11.69,0,0,0,3.35.46,18.22,18.22,0,0,0,6.31-1.16,14.13,14.13,0,0,0,2.68-1.38,12.63,12.63,0,0,0,2.22-1.87v7.1a21.67,21.67,0,0,1-8.48,6.82,27.76,27.76,0,0,1-11.18,2.14,29.38,29.38,0,0,1-6.62-.66,24.92,24.92,0,0,1-5.74-2,20.48,20.48,0,0,1-4.7-3.22,19.19,19.19,0,0,1-5.67-9.48,22.82,22.82,0,0,1-.71-6,21.19,21.19,0,0,1,2.66-10.64,18.68,18.68,0,0,1,7.51-7.34A22.84,22.84,0,0,1,328.73,118.78Zm-.64,16.63h9.8a7.84,7.84,0,0,0-1.47-4.69A4.36,4.36,0,0,0,332.8,129a4.12,4.12,0,0,0-3.36,1.72,6.55,6.55,0,0,0-1.35,4.28Z" style="fill:#231f20"/><path d="M377.75,108.78v16.13A15.2,15.2,0,0,1,390,119.29q7,0,10.91,4.07t4,11v25.76H385.26V136.53a5.77,5.77,0,0,0-1-3.62,3.49,3.49,0,0,0-2.93-1.3,5.44,5.44,0,0,0-3.57,1.58v27H356.91V108.78Z" style="fill:#231f20"/></svg>