<svg id="47bd0bb3-d18c-40a2-b3b4-845227c47cad" data-name="Layer 1" xmlns="http://www.w3.org/2000/svg" viewBox="0 0 410.83 288"><title>keelyn-2018-frames</title><path d="M86.48,80.48v23.26h-36v11.47h25v23.26h-25v11.42h36v23.26H9.53V80.48Z" style="fill:#231f20"/><path d="M170.85,117q0,8.07-4.92,13A16.82,16.82,0,0,1,153.42,135a20.5,20.5,0,0,1-15.18-6.68A14.49,14.49,0,0,0,134,135.1a34.09,34.09,0,0,0-1.34,10.18v27.87H95.12V100h37.53v15.55h.24q3.47-8,8.69-12.06a18.66,18.66,0,0,1,11.84-4.09A17,17,0,0,1,170.85,117Z" style="fill:#231f20"/><path d="M266.7,173.15H231.24v-43a11,11,0,0,0-1.64-6.37q-1.65-2.37-5.29-2.37a10.2,10.2,0,0,0-3.4.67,13.44,13.44,0,0,0-3.34,1.7v49.37H180V100h37.53v9.17a33.25,33.25,0,0,1,10.6-7.53,30.93,30.93,0,0,1,12.06-2.24q13.17,0,19.79,7.34t6.68,20.35Z" style="fill:#231f20"/><path d="M280.14,100a29.2,29.2,0,0,0,8.5,3.1,50.54,50.54,0,0,0,10.75,1.09,45.9,45.9,0,0,0,10.08-1.06,27.75,27.75,0,0,0,8.2-3.13v73.12H280.14Zm37.28-10.44a10.31,10.31,0,0,1-3.15,7.53,10.05,10.05,0,0,1-7.41,3.16,10.79,10.79,0,0,1-10.69-10.69,10,10,0,0,1,3.16-7.41A10.25,10.25,0,0,1,306.86,79a10.11,10.11,0,0,1,7.41,3.1A9.83,9.83,0,0,1,317.42,89.59Z" style="fill:#231f20"/><path d="M366.38,98.51a41.87,41.87,0,0,1,20.34,4.92,33.6,33.6,0,0,1,14.09,14.21,44.49,44.49,0,0,1,5,21.32v2.37H367.47a17.31,17.31,0,0,0,2.73,4.95,17.58,17.58,0,0,0,4.13,3.76,18.76,18.76,0,0,0,5.2,2.37,21.4,21.4,0,0,0,6,.82A32.36,32.36,0,0,0,397,151.14a25.24,25.24,0,0,0,4.82-2.49,22.73,22.73,0,0,0,4-3.37v12.81a39,39,0,0,1-15.3,12.3,49.83,49.83,0,0,1-20.16,3.85,52.81,52.81,0,0,1-11.94-1.18A45.16,45.16,0,0,1,348,169.45a36.91,36.91,0,0,1-8.47-5.8,34.85,34.85,0,0,1-6.32-7.72,35.41,35.41,0,0,1-3.92-9.38,40.81,40.81,0,0,1-1.27-10.81,38.15,38.15,0,0,1,4.8-19.19,33.57,33.57,0,0,1,13.54-13.24A41.06,41.06,0,0,1,366.38,98.51Zm-1.15,30H382.9a14.16,14.16,0,0,0-2.64-8.47,7.91,7.91,0,0,0-6.53-3.13,7.46,7.46,0,0,0-6.08,3.1,11.88,11.88,0,0,0-2.42,7.72Z" style="fill:#231f20"/></svg>