<?xml version="1.0" encoding="utf-8"?>
<!-- Generator: Adobe Illustrator 23.0.1, SVG Export Plug-In . SVG Version: 6.00 Build 0)  -->
<svg version="1.1" id="Layer_1" xmlns="http://www.w3.org/2000/svg" xmlns:xlink="http://www.w3.org/1999/xlink" x="0px" y="0px"
	 viewBox="0 0 511.3 602.6" style="enable-background:new 0 0 511.3 602.6;" xml:space="preserve">
<path d="M68.4,67.5l-8.2,3.2c-2.1,1.1-3,2.5-2.7,4.3c0.2,6.1,5.2,10.5,15,13.4l-0.7-70.9c-0.6-5.3-3.6-9.1-8.8-11.4h42.5
	c-3.5,2.7-5.2,5.9-5.2,9.5l1.1,73.2c6.2-2.1,13.7-5.8,22.5-11.1V13.8c0-3.8-0.3-6.3-0.9-7.5c-1.2-2.3-4.2-4.5-9.1-6.8l43.8-0.7
	c-5.6,4.8-8.6,9-9.1,12.5l0.9,51.1c6.7-3.5,11.6-5.2,14.8-5.2c3.2,0,7.2,0.9,12,2.7c-5.3,4.1-7.9,9.3-7.8,15.7
	c-3.1-4.2-6.3-6.4-9.9-6.4c-2.4,0-5.5,1.1-9.2,3.2l1.6,82c0,3.9,3.4,7.3,10.2,10l-47.9-0.7c5.7-2.4,9.2-6.1,10.5-10.9V88.8
	c-8.5,4.7-16,7.9-22.5,9.5v45.2c0.8,4.5,4.3,8.1,10.7,10.7l-52-0.7c8.3-2.6,12.5-7.1,12.5-13.6V96.1c-14.7-3.5-21.9-11.7-21.6-24.5
	c5.3-2.9,9.8-4.3,13.6-4.3C65.8,67.2,67.1,67.3,68.4,67.5z"/>
<path d="M178.6,57.7l-6.8-9.1c-2.4-3.2-3.6-6.6-3.6-10.2c0-1.4,0.4-2.5,1.1-3.4c1.5-2,8.9-6.9,22.3-14.8c5,3.6,10.3,7.6,15.9,12
	c8,6.4,11.7,11.5,10.9,15.4l-0.9,51.8l8.4,0.5l-16.6,18.4c-3.9,2.7-6.6,4.1-8.3,4.1c-1.5,0-2.1-0.9-1.6-2.7v-8.2l-14.3,9.1
	c-6.6,1.2-12.7-12-18.4-39.5c2.6-5.1,7.3-9.2,14.1-12.3l15-6.8c-5.2,5.6-7.6,10-7.5,13.2c-0.3,2.1-0.5,4.2-0.5,6.4
	c0,10.1,2.2,18.2,6.6,24.1c2.4,0.3,4.1-1.1,5-4.1V35l-3.4,1.8c-0.8,0.5-2.8,1.7-6.1,3.9c-5.6,3.5-8.4,6.6-8.4,9.3l2,7.5L178.6,57.7z
	"/>
<path d="M229.7,94.7l11.4,5l-9.5-79.7h28.2v12.3l17.3-9.1L300.2,57l-5,51.3l-22.3,13.2l-13-18.2l0.2,41.8l-8.6-13.2l-0.9-1.8
	L249,159l-2.3,26.8L229.7,94.7z M277.9,101.5l-2.7-66.6l-15.4,7.3l0.2,57l11.1,8.2L277.9,101.5z"/>
<path d="M306.1,94.7l11.4,5l-9.5-79.7h28.2v12.3l17.3-9.1L376.5,57l-5,51.3l-22.3,13.2l-13-18.2l0.2,41.8l-8.6-13.2l-0.9-1.8
	l-1.6,28.9l-2.3,26.8L306.1,94.7z M354.2,101.5l-2.7-66.6l-15.4,7.3l0.2,57l11.1,8.2L354.2,101.5z"/>
<path d="M390,64.7h33.4c-4.2,0.9-6.4,2.9-6.6,5.9l2.7,15.9c1.2,7.1,2.5,10.8,3.9,10.9c0.9-0.1,6.8-11.7,17.7-34.6
	c-0.2-1.7-0.5-2.6-1.1-2.9l-5.7-2.7l26.8,0.5c-7.6,14.1-17,31.3-28.4,51.7c-17.4,31.3-27.6,46.9-30.4,46.9c-0.2,0-0.3-0.1-0.5-0.2
	c-18.9-1.7-29.8-3-32.5-4.1c-6.8-0.9-14.8-4-24.1-9.3c-1.5-0.9-2.3-1.8-2.3-2.7c0-1.1,0.9-2.6,2.7-4.8c3.8-4.4,5.8-6.8,6.1-7.3
	c6.4-0.3,11.5-0.5,15.4-0.5c3.8,0,6.4,0.1,8,0.4c-0.1,1-0.7,1.7-1.6,2c-1.8,0.9-6.6,2.2-14.3,4l-4.1,5.2c5.3,2.7,18.9,4,40.9,3.8
	l11.4-19.9c1.1-2.7,1.6-5.5,1.6-8.4c0-7.2-4.4-22.5-13.2-45.8C394.7,67.5,392.7,66.1,390,64.7z"/>
<path d="M86.6,330.5l-5,42.3L57,385.9h-0.7l-55.7,0.9c8.3-2.6,12.5-7.1,12.5-13.6L12,259.8c-0.6-5.3-3.4-9.1-8.4-11.4l32.9-13.9
	L37,233l24.1-9.1l25.4,33.9l-5,46.8l-12.3,6.8L86.6,330.5z M36.3,243.2l1.4,52.3l17.6,8.2l4.5-5.9L57,235.6L36.3,243.2z M37.7,376.8
	l17.5-5l4.5-5.9l-2.5-49.8l-20.4-10.5L37.7,376.8z"/>
<path d="M101.3,356.8c1.7-10.8,2.5-24.2,2.5-40.2c0-12.1-0.5-25.5-1.6-40.2h20.4c0.6,11.5,0.7,25.2,0.2,41.1
	c-0.5,15.6-1.3,27.9-2.5,37c-0.8,5.6,1.2,9.7,5.9,12.3H95C98.4,364.8,100.6,361.5,101.3,356.8z M101.6,242.3c-0.2,2.3-0.4,4.6-0.7,7
	c2.3,7,5.2,12.4,8.9,16.4c5.9-0.6,11.1-3,15.4-7.3c0-13.8-0.8-20.7-2.5-20.7c-0.6,0-1.6,0.2-3,0.5c-1.4,0.3-2.4,0.5-3,0.5
	c-2.7,0-5.1-0.7-7-2C105.3,236.9,102.6,238.8,101.6,242.3z"/>
<path d="M132.5,281.2c7.7-5.3,16.5-11.9,26.4-19.8v20.4c7.9-6.8,13-10.2,15.4-10.2c0.8,0,1.3,0.2,1.6,0.7l10.7,18.6
	c1.2,1.4,1.8,2.7,1.8,4.1c0,1.5-0.8,2.5-2.3,3l-20.9,12.3v-0.9c3.2-3,5-5.8,5.5-8.4c-0.6-2.3-1.7-5.1-3.2-8.4
	c-2-4.2-3.5-6.2-4.5-5.9c-0.9,0.2-2,1.1-3.4,3c-0.6,22.6-0.2,44.8,1.1,66.8c0.3,4.8,2.6,7.8,7,8.9c-2.1,0-5.3,0-9.7,0s-7.5,0-9.7,0
	c-1.4,0-3.4,0-6.2,0c-2.8,0-4.9,0-6.2,0c3.9-1.7,6.3-3,7-4.1c0.6-0.6,0.9-2.1,0.9-4.5v-75.9L132.5,281.2z"/>
<path d="M229.7,266.8H217l-2,96.6c-0.3,0.6-0.5,1.2-0.5,1.8c0,2.7,3.6,7.2,10.9,13.4l-18.6-6.8c-7.3-2.7-11.1-6-11.6-9.8l1.1-96.1
	h-19.1c13-7.3,26-19.8,39.1-37.7l-0.5,28.9h11.8L229.7,266.8z"/>
<path d="M277.6,367.7c-0.8,0.3-5,1.4-12.7,3.4c10.5-8,15.9-16.9,16.4-26.6c0.6-0.9,1-10.5,1.1-28.9c0.1-17.9,0-32.3-0.5-43.4
	l-3.7-9.5c-0.5-0.8-1.1-1.1-1.9-1.1c-1.4,0-7.2,5.7-17.4,17v60.9c-0.8,4.8,0.5,8.5,3.6,10.9l-29.1-0.7c2.4-2.1,4-4.8,4.8-8l2-124.3
	c0-3.8-1.5-7.5-4.5-11.1l28.6-2.3c-4.2,4.8-6.1,8.9-5.5,12.3l0.5,53.4c6-8.9,10.2-14.5,12.6-16.6c1.1-0.9,3.7-2,7.8-3.4l22,15v86.1
	C293.9,358.8,285.8,364.4,277.6,367.7z"/>
<path d="M373.5,351.6l-24.1,1.1v-10l-17.2,9.1l-19-13.9l-4.5-68.8l27.7-15.7l13,18.2V225c0.6-3.3-0.9-7.4-4.5-12.3h26.4
	c-3,3.9-4.5,7.6-4.5,11.1l2,119.7C369.5,346.8,371.1,349.5,373.5,351.6z M331.4,272.3l-1.8,36.6c-0.6,12.9,0.9,22.9,4.5,30l15.3-7.3
	v-51.1l-11.3-14.1L331.4,272.3z"/>
<path d="M390.5,278.2l-6.8-9.1c-2.4-3.2-3.6-6.6-3.6-10.2c0-1.4,0.4-2.5,1.1-3.4c1.5-2,8.9-6.9,22.3-14.8c5,3.6,10.3,7.6,15.9,12
	c8,6.4,11.7,11.5,10.9,15.4l-0.9,51.8l8.4,0.5l-16.6,18.4c-3.9,2.7-6.6,4.1-8.3,4.1c-1.5,0-2.1-0.9-1.6-2.7v-8.2l-14.3,9.1
	c-6.6,1.2-12.7-12-18.4-39.5c2.6-5.1,7.3-9.2,14.1-12.3l15-6.8c-5.2,5.6-7.7,10-7.5,13.2c-0.3,2.1-0.5,4.2-0.5,6.4
	c0,10.1,2.2,18.2,6.6,24.1c2.4,0.3,4.1-1.1,5-4.1v-66.6l-3.4,1.8c-0.8,0.5-2.8,1.7-6.1,3.9c-5.6,3.5-8.4,6.6-8.4,9.3l2,7.5
	L390.5,278.2z"/>
<path d="M440.2,283.2h33.4c-4.2,0.9-6.4,2.9-6.6,5.9l2.7,15.9c1.2,7.1,2.5,10.8,3.9,10.9c0.9-0.1,6.8-11.7,17.7-34.6
	c-0.2-1.7-0.5-2.6-1.1-2.9l-5.7-2.7l26.8,0.5c-7.6,14.1-17,31.3-28.4,51.7c-17.4,31.3-27.6,46.9-30.4,46.9c-0.2,0-0.3-0.1-0.5-0.2
	c-18.9-1.7-29.8-3-32.5-4.1c-6.8-0.9-14.8-4-24.1-9.3c-1.5-0.9-2.3-1.8-2.3-2.7c0-1.1,0.9-2.6,2.7-4.8c3.8-4.4,5.8-6.8,6.1-7.3
	c6.4-0.3,11.5-0.5,15.4-0.5c3.8,0,6.4,0.1,8,0.4c-0.1,1-0.7,1.7-1.6,2c-1.8,0.9-6.6,2.2-14.3,4l-4.1,5.2c5.3,2.7,18.9,4,40.9,3.8
	l11.4-19.9c1.1-2.7,1.6-5.5,1.6-8.4c0-7.2-4.4-22.5-13.2-45.8C444.9,286,442.9,284.6,440.2,283.2z"/>
<path d="M54.9,426.7c4.1,0.9,10.1,1.4,17.9,1.4c-1.4,0,3.1-0.1,13.4-0.2h5.5c1.2,0,2.5,0.1,3.9,0.2c-4.5,0.2-6.8,4.3-6.8,12.5v65.7
	l-1.1,63.4c-5.5,3.6-14.8,8.2-28.2,13.6c-12.6,5.3-21.8,10.1-27.7,14.3c-4.5,3.3-7.6,5-9.1,5c-0.6,0-1.1-0.2-1.6-0.7l-10.7-23.2
	c-2-4.2-3-7.3-3-9.1c0-1.8,1.1-3.4,3.4-4.8l20.9-12.3v0.9c-3.2,3-5,5.8-5.5,8.4c0.9,3.8,2.2,9.2,3.8,16.4c0.8,3.5,1.4,5.1,2,5
	c3.9-0.5,6-0.8,6.3-0.9c4.5-1.1,8.4-3,11.5-5.9c1.7-1.5,4.9-4,9.7-7.5c2.3-1.7,3.4-3.1,3.4-4.3V444c0-5-1.3-9.1-4-12.3
	C58.2,430.7,56.8,429,54.9,426.7z"/>
<path d="M115.7,496.4l-6.8-9.1c-2.4-3.2-3.6-6.6-3.6-10.2c0-1.4,0.4-2.5,1.1-3.4c1.5-2,8.9-6.9,22.3-14.8c5,3.6,10.3,7.7,15.9,12
	c8,6.4,11.7,11.5,10.9,15.4l-0.9,51.8l8.4,0.5L146.3,557c-3.9,2.7-6.6,4.1-8.3,4.1c-1.5,0-2.1-0.9-1.6-2.7v-8.2l-14.3,9.1
	c-6.6,1.2-12.7-12-18.4-39.5c2.6-5.1,7.3-9.2,14.1-12.3l15-6.8c-5.2,5.6-7.6,10-7.5,13.2c-0.3,2.1-0.5,4.2-0.5,6.4
	c0,10.1,2.2,18.2,6.6,24.1c2.4,0.3,4.1-1.1,5-4.1v-66.6l-3.4,1.8c-0.8,0.5-2.8,1.7-6.1,3.9c-5.6,3.5-8.4,6.6-8.4,9.3l2,7.5
	L115.7,496.4z"/>
<path d="M204,500.6c2.9-5,4.1-9.5,3.6-13.6c-2-2.6-6.6-7.2-13.9-13.9c-0.6,0-1.2,0.5-1.8,1.6l-3.2,25.9l2.3,45
	c1.2,2.6,3.8,4.9,7.7,7l7-7c3.3-3.3,5.2-6.2,5.7-8.6c0-0.1,0.1-1,0.2-2.5l0.9-9.1l10,12.7l-20.4,20.7l-11.6,0.2l-22.9-20
	c-1.2-5.8-1.8-12.3-1.8-19.8c0-10.6,1.1-21.7,3.2-33.4l25.4-20c0.9-0.3,2.5-0.5,4.8-0.5c2.1,0,3.6,0.2,4.3,0.7l18.4,12l3,8.4
	L204,500.6z"/>
<path d="M317.6,457.2c-1.1,0.5-2.4,1.2-4.1,2.3l-5.7,6.6l-24.8,27.5l20.2,58.2c1.8,5,5.5,8.9,11.1,11.6h-27.7c0-0.8,0.4-2,1.1-3.9
	c0.8-1.8,1.1-3.2,1.1-4.1c-0.3-1.2-1-3.4-2.1-6.6l-14.5-44.5l-20.9,22v30.2c0,5.8,4.2,11.7,12.7,17.7c4.2,2.3,8.5,4.6,12.7,7
	c-6.8-0.2-16.1-2.8-27.7-8.1c-11.7-5.2-18.6-7.8-20.7-7.8c-1.8,0-3.8,0.2-5.9,0.7l5-3.2c3.3-2,5-4.1,5-6.4l1.8-139.7
	c0-0.9-0.7-2.1-2.2-3.5c-1.4-1.4-2.2-2.4-2.4-2.8h27.5c-1.4,1.4-2.8,3.5-4.3,6.4l-2.7,93.7l39.6-45.3c0.9-1.1,1.3-1.9,1.3-2.5
	c0-1.5-4-4.1-12-7.8c-1.1-0.1-2.3-0.6-3.6-1.4L317.6,457.2z"/>
<path d="M365.6,541.9c-1.2,0.9-6.1,4.6-14.5,11.1c-9.5,7.3-15.8,10.9-18.9,10.9c-0.5,0-0.8-0.1-0.9-0.5l-15.2-18.6
	c-2-4.4-3-7.4-3-9.1c0-1.8,1.1-3.4,3.4-4.8l4.5-2.7l10-2.3c-1.2,1.2-1.8,2.7-1.8,4.5c0,0.6,0.2,1.9,0.6,4c0.4,2,0.5,3.4,0.3,4.2
	c0.4,1.8,2.5,4.1,6.1,6.9c3.6,2.8,6.2,4,7.9,3.5c0-1.7,1.4-4.3,4.3-8l-0.9,0.2c0.6-0.5,0.9-1.1,0.9-2.1c0-2-5.9-9.8-17.6-23.4
	c-11.7-13.6-17.6-21-17.6-22.2c0-0.8,0.3-1.3,0.9-1.6l2-2.3c1.2-0.9,6-4.6,14.4-11.2c9.5-7.3,15.7-10.9,18.7-10.9
	c0.4,0,0.7,0.2,0.9,0.5l15.1,18.7c2,4.4,2.9,7.5,2.9,9.1c0,1.8-1.1,3.4-3.4,4.8l-16.4,3.7v-0.9c1.5-1.2,2.3-2.8,2.3-4.8
	c0-0.8-0.2-2.2-0.6-4.3c-0.4-2.1-0.5-3.6-0.3-4.5c-0.5-1.8-1.9-3.5-4.2-5.1c-2.3-1.6-4.5-2.4-6.5-2.4c-1.7,0-3.3,1-5,3
	c-1.7,2-2.5,3.9-2.5,5.7c0,1.1,0.3,2,0.9,2.7c4.7,6.1,12.6,15.1,23.9,27.3c7.9,8.5,11.8,14.1,11.8,16.8c0,1.1-0.4,1.9-1.1,2.5
	l-1.4,0.2V541.9z"/>
<path d="M434,538.8c0.8,3.8-3.4,8-12.5,12.7c-7.6,3.9-13.8,6.2-18.6,6.8l-4.1-0.7c-15.3-11.8-23.4-19.4-24.3-22.7
	c-0.3-7.1,0.4-24.7,2-52.7c10.5-7.6,21.3-13.3,32.5-17.3l16.1,11.1l1.8,3c3.3,3.2,5.3,10,5.9,20.4
	C433.2,504.8,433.6,517.9,434,538.8z M412.2,544.2c0-39.5-1.4-62.9-4.3-70.2l-7.3,4.3c-2.6,2-4.2,4-5,6.1l1.1,59.8
	c1.1,3,3.1,5.2,6.1,6.6C407.5,549.4,410.6,547.2,412.2,544.2z"/>
<path d="M437.2,480.1c7.7-5.3,16.5-11.9,26.4-19.8v20.4c2.9-3.5,6.5-7.5,10.9-12c6.4-4.8,10.1-7.3,11.4-7.3c0.8,0,1.3,0.2,1.6,0.7
	l13,18.6c0.1,0.2,0.2,24.9,0.2,74.3c0,1.5-0.8,2.5-2.3,3l-20.9,12.3v-0.9c3.2-3,5-5.8,5.5-8.4c-0.2-25.4-0.8-52-2-79.5
	c-1.5-3-4.4-3.9-8.6-2.7c-0.5,0.2-3.1,3.4-8,9.8c-0.5,17.3-0.1,35.7,1.1,55.4c0.3,4.8,2.6,7.8,7,8.9c-2.1,0-5.3-0.1-9.7-0.2
	c-4.3-0.1-7.5-0.2-9.7-0.2c-1.4,0-3.4,0.1-6.2,0.2c-2.8,0.2-4.9,0.2-6.2,0.2c3.9-1.7,6.3-3,7-4.1c0.6-0.6,0.9-2.1,0.9-4.5v-64.5
	L437.2,480.1z"/>
</svg>
